<?xml version="1.0" encoding="UTF-8"?>
<svg version="1.1" xmlns="http://www.w3.org/2000/svg" width="512" height="512">
<path d="M0 0 C0.66 -0.0103125 1.32 -0.020625 2 -0.03125 C5.04018055 0.77629796 6.09299784 1.99111744 8 4.5 C8.3945916 7.51567174 8.54720652 10.16558781 8.51757812 13.18066406 C8.5245874 14.05597275 8.53159668 14.93128143 8.53881836 15.83311462 C8.55642628 18.72760735 8.54476164 21.62112224 8.53125 24.515625 C8.53394508 26.53098742 8.53782764 28.54634857 8.54284668 30.56170654 C8.54874633 34.78849653 8.54016724 39.01494852 8.52148438 43.24169922 C8.49875318 48.64654758 8.51177807 54.05059886 8.53577423 59.45541763 C8.5502695 63.61972999 8.54560811 67.78385535 8.53526306 71.94817352 C8.53260304 73.93998052 8.53583994 75.93180474 8.54518127 77.92359161 C8.55540167 80.71676654 8.53976682 83.50867646 8.51757812 86.30175781 C8.52567505 87.11762863 8.53377197 87.93349945 8.54211426 88.77409363 C8.44399596 95.48017242 6.47496012 100.67569163 2.03515625 105.7421875 C1.38417969 106.28101563 0.73320312 106.81984375 0.0625 107.375 C-0.58589844 107.92929688 -1.23429688 108.48359375 -1.90234375 109.0546875 C-13.26288039 116.88224533 -25.65084808 112.5 -40 112.5 C-40 139.89 -40 167.28 -40 195.5 C-37.36 194.51 -34.72 193.52 -32 192.5 C-23.12368898 191.52929013 -14.70505552 191.59100586 -7 196.5 C-6.34386719 196.90863281 -5.68773437 197.31726563 -5.01171875 197.73828125 C-1.71136568 199.94534966 0.85546022 202.09396624 3 205.5 C3.99 205.0978125 3.99 205.0978125 5 204.6875 C5.99 204.295625 6.98 203.90375 8 203.5 C9.093125 202.96375 10.18625 202.4275 11.3125 201.875 C19.19417735 198.95862982 29.73556045 199.26031615 37.5625 202.125 C45.09684894 205.74047617 50.32345387 210.97748165 54 218.5 C54 219.16 54 219.82 54 220.5 C54.804375 220.066875 54.804375 220.066875 55.625 219.625 C64.26805008 215.53092365 73.72452598 215.04741954 83.00390625 217.1953125 C91.78586237 220.38631335 97.89879 226.14397662 102 234.5 C103.60030367 238.69478072 104.25311073 242.17009448 104.26742554 246.65226746 C104.28022049 248.4708728 104.28022049 248.4708728 104.29327393 250.32621765 C104.29236755 251.64322159 104.29146118 252.96022552 104.29052734 254.31713867 C104.29651679 255.72873285 104.3033233 257.14032376 104.31088257 258.5519104 C104.3285113 262.37656949 104.33323673 266.20113901 104.33451414 270.0258348 C104.33593852 272.41967616 104.34021362 274.81349496 104.34550858 277.2073307 C104.36400125 285.57125918 104.37218049 293.93512402 104.37060547 302.29907227 C104.36940553 310.07438841 104.39048072 317.84942632 104.4220928 325.62467211 C104.44832147 332.31621794 104.45896995 339.00767329 104.45769465 345.69927007 C104.45718678 349.68859701 104.46277182 353.67767676 104.48405075 357.66695213 C104.50354376 361.423911 104.50348307 365.18038979 104.48901749 368.93736649 C104.48595933 370.95698141 104.50252967 372.97659696 104.51989746 374.99613953 C104.43677767 387.14859224 101.48018566 396.61679561 93 405.5 C80.81219868 417.1348576 67.6408572 417.10484271 51.72265625 417.03125 C49.66287554 417.03394825 47.60309608 417.03783344 45.5433197 417.04284668 C41.24742385 417.04871677 36.95186259 417.04025311 32.65600586 417.02148438 C27.14896093 416.99859541 21.64269159 417.01189646 16.13567448 417.03577423 C11.89176053 417.05021373 7.64803131 417.04563643 3.40411186 417.03526306 C1.37271469 417.03259588 -0.65869927 417.03586522 -2.69007683 417.04518127 C-5.52162237 417.0553274 -8.3518988 417.03987755 -11.18334961 417.01757812 C-12.02130569 417.02567505 -12.85926178 417.03377197 -13.72261047 417.04211426 C-17.39627725 416.98844841 -19.54441023 416.84512494 -22.51783752 414.59265137 C-24.12267699 412.32679351 -24.54291384 411.24648549 -24.5 408.5 C-24.5103125 407.84 -24.520625 407.18 -24.53125 406.5 C-23.73100197 403.48730152 -22.4649711 402.40465134 -20 400.5 C-17.19540883 400.10719812 -14.78083191 399.95557623 -11.9777832 399.98583984 C-10.76964211 399.97515221 -10.76964211 399.97515221 -9.53709412 399.96424866 C-6.87474087 399.94495395 -4.21318137 399.95325259 -1.55078125 399.9609375 C0.30525368 399.95102875 2.16127877 399.93908683 4.01728821 399.92520142 C8.90799117 399.8928036 13.79847032 399.88244581 18.68927002 399.87835693 C26.49914872 399.86961269 34.30884287 399.83389083 42.11857033 399.7861824 C44.83771871 399.7736631 47.55663144 399.77435033 50.27580261 399.77645874 C51.96080704 399.76987141 53.6458099 399.76286378 55.33081055 399.75537109 C56.07763092 399.75949509 56.82445129 399.76361908 57.59390259 399.76786804 C66.22700383 399.70272659 74.09391287 398.44697119 80.40625 392.08203125 C85.95954749 385.80228496 87.11415556 379.168634 87.14044189 370.97966003 C87.14615204 369.90740677 87.15186218 368.8351535 87.15774536 367.73040771 C87.15886322 366.56922424 87.15998108 365.40804077 87.16113281 364.21166992 C87.16609772 362.97679337 87.17106262 361.74191681 87.17617798 360.46961975 C87.18825123 357.09342956 87.19573525 353.71730102 87.20018864 350.34109664 C87.2031284 348.22802388 87.20723484 346.11495643 87.21169281 344.00188637 C87.22535136 337.3794807 87.23502645 330.7570873 87.2388947 324.13466853 C87.24337375 316.51034236 87.26092132 308.88619561 87.2898953 301.26192397 C87.31156062 295.35427654 87.32160154 289.44667941 87.32293582 283.5389927 C87.32398024 280.01701044 87.32981027 276.49519722 87.34775543 272.97325706 C87.36740372 269.04095124 87.36292784 265.10886726 87.35644531 261.17651367 C87.3656601 260.02140289 87.37487488 258.86629211 87.3843689 257.67617798 C87.35122402 251.24430343 86.94844785 245.32864395 84 239.5 C79.29372389 234.90851111 75.93085276 234.14500819 69.54296875 234.21875 C64.87900215 234.73458041 62.20156491 237.03142067 59.3125 240.5625 C57.6440309 244.29669276 56.74902853 248.09207094 55.84375 252.07421875 C55 254.5 55 254.5 52 256.5 C45.03756137 257.16308939 45.03756137 257.16308939 41.78125 255.08203125 C39.08633165 251.17558162 39.44090084 247.45465029 39.4375 242.8125 C39.40166365 235.97799701 39.01378715 229.75794324 36 223.5 C31.29372389 218.90851111 27.93085276 218.14500819 21.54296875 218.21875 C16.87900215 218.73458041 14.20156491 221.03142067 11.3125 224.5625 C9.6440309 228.29669276 8.74902853 232.09207094 7.84375 236.07421875 C7 238.5 7 238.5 4 240.5 C-3.02286088 241.16884389 -3.02286088 241.16884389 -6.19140625 239 C-8.67761917 235.56333419 -8.7602106 232.22963035 -9 228.125 C-9.35553663 222.1017912 -10.07704708 218.38518666 -14 213.5 C-17.83713196 210.11429533 -21.63401462 209.98708828 -26.5625 210.1484375 C-31.14875 210.80991587 -33.82662859 213.06587938 -36.6875 216.5625 C-38.3559691 220.29669276 -39.25097147 224.09207094 -40.15625 228.07421875 C-41 230.5 -41 230.5 -44 232.5 C-50.96530949 233.16336281 -50.96530949 233.16336281 -54.09605408 231.15617371 C-57.13127972 226.92176429 -56.54517716 222.62259594 -56.49829102 217.5402832 C-56.50380981 216.42274155 -56.50932861 215.30519989 -56.51501465 214.15379333 C-56.52434429 211.72569346 -56.52443193 209.29754466 -56.51642036 206.86944008 C-56.50381466 203.02283387 -56.51506027 199.17694787 -56.53245544 195.33036804 C-56.56194046 187.85172412 -56.56477819 180.37326076 -56.56280518 172.8945694 C-56.56131777 162.74669553 -56.57809819 152.59904974 -56.61894035 142.45125389 C-56.62876307 138.66842023 -56.62006682 134.88593015 -56.61024475 131.10310364 C-56.61639189 128.77096331 -56.6233046 126.43882484 -56.63110352 124.10668945 C-56.62338425 123.06064545 -56.61566498 122.01460144 -56.60771179 120.93685913 C-56.65026571 114.74894268 -57.21913382 109.11710755 -60 103.5 C-64.70627611 98.90851111 -68.06914724 98.14500819 -74.45703125 98.21875 C-78.19180418 98.63181244 -80.23941828 100.00874332 -83 102.5 C-87.09178697 108.00274799 -87.147595 113.56347018 -87.13130188 120.21156311 C-87.13341759 120.98072082 -87.13553331 121.74987852 -87.13771313 122.54234403 C-87.1436971 125.1155647 -87.14271414 127.68873611 -87.1418457 130.26196289 C-87.14487815 132.10840437 -87.14839985 133.9548451 -87.15237427 135.80128479 C-87.16025524 139.77526495 -87.16540508 143.74923616 -87.16866493 147.72322273 C-87.17457761 154.00467296 -87.191119 160.28606662 -87.21000671 166.56748962 C-87.21634372 168.71802231 -87.22266934 170.86855504 -87.22898388 173.01908779 C-87.23214969 174.09590687 -87.2353155 175.17272594 -87.23857725 176.2821759 C-87.28066503 190.90498564 -87.31364983 205.52776844 -87.32592773 220.15063477 C-87.33429678 230.01676087 -87.35674107 239.88274636 -87.3952834 249.74880213 C-87.41507658 254.97028242 -87.42743767 260.19155236 -87.42244911 265.41307259 C-87.41781714 270.32073003 -87.43152827 275.22798795 -87.45946121 280.1355648 C-87.46639644 281.93832717 -87.46647463 283.74113064 -87.45926094 285.54389191 C-87.4504183 288.00154781 -87.46599007 290.45787303 -87.48774719 292.91542053 C-87.47930466 293.63185685 -87.47086212 294.34829316 -87.46216375 295.08643967 C-87.51812028 298.4950078 -87.78051249 300.21907293 -89.9070158 302.94083309 C-92.17827238 304.63280387 -93.20428184 305.0436831 -96 305 C-96.99 305.01546875 -96.99 305.01546875 -98 305.03125 C-101.39234515 304.13015832 -103.25345053 301.76284924 -105.01174927 298.7885437 C-106.10500373 296.67348091 -107.14021285 294.53810058 -108.16015625 292.38671875 C-108.54677933 291.58816971 -108.9334024 290.78962067 -109.33174133 289.96687317 C-110.58310379 287.37741676 -111.82271574 284.78251668 -113.0625 282.1875 C-113.91994385 280.40977411 -114.77818206 278.63243115 -115.63720703 276.85546875 C-119.29887392 269.2700658 -122.92796356 261.66961501 -126.51953125 254.05078125 C-127.01380615 253.00510986 -127.50808105 251.95943848 -128.01733398 250.88208008 C-128.88988884 249.0298035 -129.75585511 247.17440102 -130.61352539 245.31518555 C-133.71696664 238.70265435 -137.05122392 231.65110619 -143.83203125 228.1484375 C-149.28096891 226.51866515 -155.63536779 226.71178926 -161 228.5 C-157.58314954 244.15801721 -153.82330482 259.70880756 -149.86134338 275.23711491 C-148.82674928 279.29240373 -147.80241248 283.34964732 -146.80322266 287.41381836 C-141.81389353 307.67690785 -136.12085092 326.09443207 -126 344.5 C-125.47099594 345.47402771 -124.94199188 346.44805542 -124.3969574 347.45159912 C-114.19436752 366.79096783 -114.19436752 366.79096783 -100.6875 383.80859375 C-99 385.5 -99 385.5 -99 387.5 C-98.43152344 387.76296875 -97.86304688 388.0259375 -97.27734375 388.296875 C-90.44237927 391.90779963 -83.50783834 397.48432332 -80 404.5 C-79.43127962 411.5521327 -79.43127962 411.5521327 -81.5 415 C-85.01827004 417.11096202 -87.99554601 417.32078871 -92 416.5 C-94.1875 414.8125 -94.1875 414.8125 -96 412.5 C-98.90141894 409.43278569 -101.86728914 406.81864753 -105.25 404.3125 C-124.55814307 389.40852841 -136.14636374 364.32504885 -146.9375 343.0625 C-147.37376709 342.21228271 -147.81003418 341.36206543 -148.25952148 340.48608398 C-155.15590463 326.64418112 -158.92668479 311.8964724 -162.7734375 297 C-163.30655695 294.94924399 -163.8398963 292.89854513 -164.3734436 290.84790039 C-165.48217373 286.57960975 -166.5857325 282.31002124 -167.68603516 278.03955078 C-169.09581823 272.57116797 -170.52254589 267.1073608 -171.95355797 261.64450073 C-173.05639842 257.42414707 -174.14834241 253.20103097 -175.23720169 248.97705078 C-175.75888231 246.96025795 -176.28439821 244.94445307 -176.81385422 242.9296875 C-177.55055097 240.12128733 -178.27199636 237.30938664 -178.98974609 234.49609375 C-179.20990387 233.67004135 -179.43006165 232.84398895 -179.65689087 231.99290466 C-180.78403369 227.50080194 -181.28464205 224.07887873 -180 219.5 C-174.91885348 213.23557279 -165.71735791 210.13754218 -157.95947266 209.27246094 C-146.10776601 208.41997446 -137.15705283 209.75672084 -127.8125 217.5625 C-119.52661817 225.57819003 -115.15250949 235.11625532 -110.27734375 245.3984375 C-109.76876831 246.46666748 -109.26019287 247.53489746 -108.73620605 248.63549805 C-107.48889426 251.25609794 -106.24355197 253.87761442 -105 256.5 C-104.99853344 255.72585062 -104.99706688 254.95170124 -104.99555588 254.15409279 C-104.95845413 235.29031989 -104.8993948 216.42673165 -104.81609726 197.56310463 C-104.77634043 188.44066714 -104.74393092 179.31831549 -104.72900391 170.19580078 C-104.71596996 162.24173333 -104.68896093 154.28785504 -104.64538693 146.33389413 C-104.62281119 142.12490069 -104.60708698 137.9161402 -104.60811615 133.70708084 C-104.60886508 129.73920352 -104.59082192 125.77184041 -104.55883217 121.80409622 C-104.55036637 120.35379382 -104.54856054 118.90343352 -104.55419731 117.45311737 C-104.59094202 106.5386969 -103.39015636 97.26180883 -95.703125 89.03125 C-87.47956115 81.63758709 -78.76554365 79.91809933 -67.98828125 80.1875 C-59.42084299 80.67210645 -52.89141291 84.41220666 -47 90.5 C-44 93.98387097 -44 93.98387097 -44 96.5 C-39.43700932 96.38998376 -34.87483294 96.25938389 -30.3125 96.125 C-29.01892578 96.0940625 -27.72535156 96.063125 -26.39257812 96.03125 C-25.14541016 95.99257812 -23.89824219 95.95390625 -22.61328125 95.9140625 C-21.46641846 95.8826416 -20.31955566 95.8512207 -19.13793945 95.81884766 C-15.94849253 95.4947663 -13.77218044 95.11269356 -11 93.5 C-8.68043794 89.22787943 -8.71894525 85.02556979 -8.74462891 80.28491211 C-8.74100845 79.47130722 -8.737388 78.65770233 -8.73365784 77.81944275 C-8.72678152 76.05869096 -8.72425508 74.29791794 -8.72560501 72.53715324 C-8.72657181 69.75049833 -8.71361124 66.96422745 -8.69662476 64.17762756 C-8.6503888 56.25703869 -8.62573305 48.33649073 -8.61914062 40.41577148 C-8.61413159 35.56636915 -8.58991758 30.71737061 -8.55381393 25.86810493 C-8.54400627 24.02094507 -8.54168925 22.17372975 -8.54698563 20.32655144 C-8.55404081 17.74582452 -8.53680848 15.166306 -8.51416016 12.58569336 C-8.52641884 11.4408548 -8.52641884 11.4408548 -8.53892517 10.27288818 C-8.48390422 6.75343248 -8.27266927 4.85345168 -6.09286499 2.02784729 C-3.82368369 0.37128439 -2.77567944 -0.04336999 0 0 Z " fill="#000000" transform="translate(392,79.5)"/>
<path d="M0 0 C1.19012192 -0.00852997 2.38024384 -0.01705994 3.60643005 -0.02584839 C5.55232025 -0.02448883 5.55232025 -0.02448883 7.53752136 -0.02310181 C8.92427939 -0.02908944 10.31103409 -0.03589553 11.69778442 -0.04345703 C15.45825403 -0.06110158 19.21863257 -0.06581179 22.97913957 -0.0670886 C25.3309074 -0.06851177 27.68265219 -0.07278453 30.03441429 -0.07808304 C38.24575135 -0.09657903 46.45702354 -0.1047543 54.66838074 -0.10317993 C62.31138488 -0.10197902 69.9541064 -0.12307241 77.59703904 -0.15466726 C84.16792461 -0.18085823 90.73871803 -0.19154603 97.30965537 -0.19026911 C101.23015673 -0.18976025 105.15040692 -0.1954008 109.07085609 -0.21662521 C112.76049191 -0.23605513 116.44963821 -0.23610013 120.13929176 -0.22159195 C122.12967436 -0.21851929 124.12005725 -0.23514747 126.11036682 -0.25247192 C134.33505102 -0.19490663 139.94346912 0.65860019 146.30387878 6.23226929 C146.84270691 6.88324585 147.38153503 7.53422241 147.93669128 8.20492554 C148.49098816 8.85332397 149.04528503 9.50172241 149.61637878 10.16976929 C152.53813309 14.41026134 153.31253551 18.09949541 153.32911682 23.20573425 C153.34191177 24.99091713 153.34191177 24.99091713 153.35496521 26.81216431 C153.35360565 28.7580545 153.35360565 28.7580545 153.35221863 30.74325562 C153.35820626 32.13001364 153.36501235 33.51676834 153.37257385 34.90351868 C153.3902184 38.66398828 153.39492861 42.42436682 153.39620543 46.18487382 C153.39762859 48.53664165 153.40190135 50.88838644 153.40719986 53.24014854 C153.42569585 61.4514856 153.43387112 69.66275779 153.43229675 77.87411499 C153.43109584 85.51711913 153.45218923 93.15984065 153.48378408 100.8027733 C153.50997505 107.37365886 153.52066285 113.94445229 153.51938593 120.51538962 C153.51887708 124.43589099 153.52451762 128.35614117 153.54574203 132.27659035 C153.56517195 135.96622617 153.56521695 139.65537246 153.55070877 143.34502602 C153.54763611 145.33540861 153.56426429 147.3257915 153.58158875 149.31610107 C153.52402345 157.54078527 152.67051663 163.14920338 147.09684753 169.50961304 C146.44587097 170.04844116 145.79489441 170.58726929 145.12419128 171.14242554 C144.47579285 171.69672241 143.82739441 172.25101929 143.15934753 172.82211304 C138.91885548 175.74386734 135.22962141 176.51826976 130.12338257 176.53485107 C128.93326065 176.54338104 127.74313873 176.55191101 126.51695251 176.56069946 C125.21969238 176.55979309 123.92243225 176.55888672 122.58586121 176.55795288 C121.19910318 176.56394051 119.81234848 176.5707466 118.42559814 176.57830811 C114.66512854 176.59595265 110.90475 176.60066286 107.144243 176.60193968 C104.79247517 176.60336285 102.44073038 176.60763561 100.08896828 176.61293411 C91.87763122 176.6314301 83.66635903 176.63960537 75.45500183 176.63803101 C67.81199769 176.63683009 60.16927617 176.65792348 52.52634352 176.68951833 C45.95545796 176.71570931 39.38466454 176.72639711 32.8137272 176.72512019 C28.89322584 176.72461133 24.97297565 176.73025187 21.05252647 176.75147629 C17.36289065 176.77090621 13.67374436 176.7709512 9.98409081 176.75644302 C7.99370821 176.75337036 6.00332532 176.76999854 4.01301575 176.787323 C-4.21166845 176.72975771 -9.82008655 175.87625088 -16.18049622 170.30258179 C-16.9887384 169.32611694 -16.9887384 169.32611694 -17.81330872 168.32992554 C-18.36760559 167.6815271 -18.92190247 167.03312866 -19.49299622 166.36508179 C-22.41475052 162.12458973 -23.18915294 158.43535566 -23.20573425 153.32911682 C-23.21426422 152.1389949 -23.22279419 150.94887299 -23.23158264 149.72268677 C-23.23067627 148.42542664 -23.2297699 147.1281665 -23.22883606 145.79159546 C-23.23482369 144.40483743 -23.24162978 143.01808274 -23.24919128 141.6313324 C-23.26683583 137.87086279 -23.27154604 134.11048425 -23.27282286 130.34997725 C-23.27424603 127.99820943 -23.27851879 125.64646463 -23.28381729 123.29470253 C-23.30231328 115.08336547 -23.31048855 106.87209328 -23.30891418 98.66073608 C-23.30771327 91.01773194 -23.32880666 83.37501042 -23.36040151 75.73207778 C-23.38659249 69.16119221 -23.39728028 62.59039879 -23.39600337 56.01946145 C-23.39549451 52.09896009 -23.40113505 48.1787099 -23.42235947 44.25826073 C-23.44178939 40.56862491 -23.44183438 36.87947861 -23.4273262 33.18982506 C-23.42425354 31.19944246 -23.44088172 29.20905957 -23.45820618 27.21875 C-23.40064089 18.99406581 -22.54713406 13.3856477 -16.97346497 7.02523804 C-16.3224884 6.48640991 -15.67151184 5.94758179 -15.00080872 5.39242554 C-14.35241028 4.83812866 -13.70401184 4.28383179 -13.03596497 3.71273804 C-8.79547291 0.79098373 -5.10623884 0.01658131 0 0 Z M-4.93830872 19.26742554 C-6.71168446 22.83224434 -7.19028644 25.73149113 -7.19900513 29.68769836 C-7.20608994 30.76291245 -7.21317474 31.83812653 -7.22047424 32.94592285 C-7.21799683 34.11541473 -7.21551941 35.28490662 -7.21296692 36.48983765 C-7.21807785 37.72938705 -7.22318878 38.96893646 -7.22845459 40.24604797 C-7.23996262 43.63868924 -7.24242586 47.03108598 -7.23989129 50.42372966 C-7.23882006 53.25918361 -7.24370881 56.09461513 -7.24849671 58.93006426 C-7.25958393 65.6209043 -7.26003369 72.31168819 -7.25398254 79.00253296 C-7.24794211 85.89800147 -7.26025721 92.79326596 -7.28155261 99.68869966 C-7.29918241 105.61582231 -7.30516782 111.54288009 -7.30191487 117.47002798 C-7.30010411 121.00700624 -7.30271735 124.54383894 -7.31662941 128.08079338 C-7.33156659 132.02581634 -7.32222552 135.97058045 -7.31062317 139.9156189 C-7.31826691 141.08308655 -7.32591064 142.2505542 -7.33378601 143.45339966 C-7.36615423 151.33487444 -7.36615423 151.33487444 -3.93830872 158.26742554 C-0.37348991 160.04080128 2.52575688 160.51940326 6.48196411 160.52812195 C7.55717819 160.53520676 8.63239227 160.54229156 9.7401886 160.54959106 C11.49442642 160.54587494 11.49442642 160.54587494 13.28410339 160.54208374 C14.5236528 160.54719467 15.76320221 160.5523056 17.04031372 160.55757141 C20.43295499 160.56907944 23.82535172 160.57154269 27.21799541 160.56900811 C30.05344935 160.56793688 32.88888087 160.57282563 35.72433001 160.57761353 C42.41517004 160.58870075 49.10595393 160.58915051 55.79679871 160.58309937 C62.69226721 160.57705893 69.58753171 160.58937403 76.48296541 160.61066943 C82.41008805 160.62829924 88.33714584 160.63428464 94.26429373 160.63103169 C97.80127199 160.62922093 101.33810468 160.63183417 104.87505913 160.64574623 C108.82008208 160.66068341 112.7648462 160.65134234 116.70988464 160.63973999 C117.87735229 160.64738373 119.04481995 160.65502747 120.24766541 160.66290283 C128.12914018 160.69527105 128.12914018 160.69527105 135.06169128 157.26742554 C136.83506703 153.70260673 137.31366901 150.80335994 137.3223877 146.84715271 C137.3294725 145.77193863 137.33655731 144.69672455 137.34385681 143.58892822 C137.34137939 142.41943634 137.33890198 141.24994446 137.33634949 140.04501343 C137.34146042 138.80546402 137.34657135 137.56591461 137.35183716 136.2888031 C137.36334519 132.89616183 137.36580843 129.5037651 137.36327386 126.11112142 C137.36220263 123.27566747 137.36709138 120.44023595 137.37187928 117.60478681 C137.3829665 110.91394678 137.38341626 104.22316289 137.37736511 97.53231812 C137.37132468 90.63684961 137.38363978 83.74158512 137.40493518 76.84615141 C137.42256498 70.91902877 137.42855039 64.99197098 137.42529744 59.06482309 C137.42348668 55.52784484 137.42609992 51.99101214 137.44001198 48.45405769 C137.45494916 44.50903474 137.44560809 40.56427062 137.43400574 36.61923218 C137.44164948 35.45176453 137.44929321 34.28429687 137.45716858 33.08145142 C137.4895368 25.19997664 137.4895368 25.19997664 134.06169128 18.26742554 C130.49687248 16.49404979 127.59762569 16.01544781 123.64141846 16.00672913 C122.56620438 15.99964432 121.4909903 15.99255951 120.38319397 15.98526001 C118.62895615 15.98897614 118.62895615 15.98897614 116.83927917 15.99276733 C115.59972977 15.9876564 114.36018036 15.98254547 113.08306885 15.97727966 C109.69042758 15.96577163 106.29803085 15.96330839 102.90538716 15.96584296 C100.06993321 15.96691419 97.2345017 15.96202544 94.39905256 15.95723754 C87.70821253 15.94615033 81.01742864 15.94570057 74.32658386 15.95175171 C67.43111535 15.95779214 60.53585086 15.94547704 53.64041716 15.92418164 C47.71329451 15.90655184 41.78623673 15.90056643 35.85908884 15.90381938 C32.32211058 15.90563014 28.78527788 15.9030169 25.24832344 15.88910484 C21.30330049 15.87416766 17.35853637 15.88350874 13.41349792 15.89511108 C12.24603027 15.88746735 11.07856262 15.87982361 9.87571716 15.87194824 C1.99424238 15.83958002 1.99424238 15.83958002 -4.93830872 19.26742554 Z " fill="#000000" transform="translate(38.93830871582031,223.73257446289063)"/>
<path d="M0 0 C1.19012192 -0.00852997 2.38024384 -0.01705994 3.60643005 -0.02584839 C5.55232025 -0.02448883 5.55232025 -0.02448883 7.53752136 -0.02310181 C8.92427939 -0.02908944 10.31103409 -0.03589553 11.69778442 -0.04345703 C15.45825403 -0.06110158 19.21863257 -0.06581179 22.97913957 -0.0670886 C25.3309074 -0.06851177 27.68265219 -0.07278453 30.03441429 -0.07808304 C38.24575135 -0.09657903 46.45702354 -0.1047543 54.66838074 -0.10317993 C62.31138488 -0.10197902 69.9541064 -0.12307241 77.59703904 -0.15466726 C84.16792461 -0.18085823 90.73871803 -0.19154603 97.30965537 -0.19026911 C101.23015673 -0.18976025 105.15040692 -0.1954008 109.07085609 -0.21662521 C112.76049191 -0.23605513 116.44963821 -0.23610013 120.13929176 -0.22159195 C122.12967436 -0.21851929 124.12005725 -0.23514747 126.11036682 -0.25247192 C134.33505102 -0.19490663 139.94346912 0.65860019 146.30387878 6.23226929 C146.84270691 6.88324585 147.38153503 7.53422241 147.93669128 8.20492554 C148.49098816 8.85332397 149.04528503 9.50172241 149.61637878 10.16976929 C152.53813309 14.41026134 153.31253551 18.09949541 153.32911682 23.20573425 C153.34191177 24.99091713 153.34191177 24.99091713 153.35496521 26.81216431 C153.35360565 28.7580545 153.35360565 28.7580545 153.35221863 30.74325562 C153.35820626 32.13001364 153.36501235 33.51676834 153.37257385 34.90351868 C153.3902184 38.66398828 153.39492861 42.42436682 153.39620543 46.18487382 C153.39762859 48.53664165 153.40190135 50.88838644 153.40719986 53.24014854 C153.42569585 61.4514856 153.43387112 69.66275779 153.43229675 77.87411499 C153.43109584 85.51711913 153.45218923 93.15984065 153.48378408 100.8027733 C153.50997505 107.37365886 153.52066285 113.94445229 153.51938593 120.51538962 C153.51887708 124.43589099 153.52451762 128.35614117 153.54574203 132.27659035 C153.56517195 135.96622617 153.56521695 139.65537246 153.55070877 143.34502602 C153.54763611 145.33540861 153.56426429 147.3257915 153.58158875 149.31610107 C153.52402345 157.54078527 152.67051663 163.14920338 147.09684753 169.50961304 C146.44587097 170.04844116 145.79489441 170.58726929 145.12419128 171.14242554 C144.47579285 171.69672241 143.82739441 172.25101929 143.15934753 172.82211304 C138.91885548 175.74386734 135.22962141 176.51826976 130.12338257 176.53485107 C128.93326065 176.54338104 127.74313873 176.55191101 126.51695251 176.56069946 C125.21969238 176.55979309 123.92243225 176.55888672 122.58586121 176.55795288 C121.19910318 176.56394051 119.81234848 176.5707466 118.42559814 176.57830811 C114.66512854 176.59595265 110.90475 176.60066286 107.144243 176.60193968 C104.79247517 176.60336285 102.44073038 176.60763561 100.08896828 176.61293411 C91.87763122 176.6314301 83.66635903 176.63960537 75.45500183 176.63803101 C67.81199769 176.63683009 60.16927617 176.65792348 52.52634352 176.68951833 C45.95545796 176.71570931 39.38466454 176.72639711 32.8137272 176.72512019 C28.89322584 176.72461133 24.97297565 176.73025187 21.05252647 176.75147629 C17.36289065 176.77090621 13.67374436 176.7709512 9.98409081 176.75644302 C7.99370821 176.75337036 6.00332532 176.76999854 4.01301575 176.787323 C-4.21166845 176.72975771 -9.82008655 175.87625088 -16.18049622 170.30258179 C-16.9887384 169.32611694 -16.9887384 169.32611694 -17.81330872 168.32992554 C-18.36760559 167.6815271 -18.92190247 167.03312866 -19.49299622 166.36508179 C-22.41475052 162.12458973 -23.18915294 158.43535566 -23.20573425 153.32911682 C-23.21426422 152.1389949 -23.22279419 150.94887299 -23.23158264 149.72268677 C-23.23067627 148.42542664 -23.2297699 147.1281665 -23.22883606 145.79159546 C-23.23482369 144.40483743 -23.24162978 143.01808274 -23.24919128 141.6313324 C-23.26683583 137.87086279 -23.27154604 134.11048425 -23.27282286 130.34997725 C-23.27424603 127.99820943 -23.27851879 125.64646463 -23.28381729 123.29470253 C-23.30231328 115.08336547 -23.31048855 106.87209328 -23.30891418 98.66073608 C-23.30771327 91.01773194 -23.32880666 83.37501042 -23.36040151 75.73207778 C-23.38659249 69.16119221 -23.39728028 62.59039879 -23.39600337 56.01946145 C-23.39549451 52.09896009 -23.40113505 48.1787099 -23.42235947 44.25826073 C-23.44178939 40.56862491 -23.44183438 36.87947861 -23.4273262 33.18982506 C-23.42425354 31.19944246 -23.44088172 29.20905957 -23.45820618 27.21875 C-23.40064089 18.99406581 -22.54713406 13.3856477 -16.97346497 7.02523804 C-16.3224884 6.48640991 -15.67151184 5.94758179 -15.00080872 5.39242554 C-14.35241028 4.83812866 -13.70401184 4.28383179 -13.03596497 3.71273804 C-8.79547291 0.79098373 -5.10623884 0.01658131 0 0 Z M-4.93830872 19.26742554 C-6.71168446 22.83224434 -7.19028644 25.73149113 -7.19900513 29.68769836 C-7.20608994 30.76291245 -7.21317474 31.83812653 -7.22047424 32.94592285 C-7.21799683 34.11541473 -7.21551941 35.28490662 -7.21296692 36.48983765 C-7.21807785 37.72938705 -7.22318878 38.96893646 -7.22845459 40.24604797 C-7.23996262 43.63868924 -7.24242586 47.03108598 -7.23989129 50.42372966 C-7.23882006 53.25918361 -7.24370881 56.09461513 -7.24849671 58.93006426 C-7.25958393 65.6209043 -7.26003369 72.31168819 -7.25398254 79.00253296 C-7.24794211 85.89800147 -7.26025721 92.79326596 -7.28155261 99.68869966 C-7.29918241 105.61582231 -7.30516782 111.54288009 -7.30191487 117.47002798 C-7.30010411 121.00700624 -7.30271735 124.54383894 -7.31662941 128.08079338 C-7.33156659 132.02581634 -7.32222552 135.97058045 -7.31062317 139.9156189 C-7.31826691 141.08308655 -7.32591064 142.2505542 -7.33378601 143.45339966 C-7.36615423 151.33487444 -7.36615423 151.33487444 -3.93830872 158.26742554 C-0.37348991 160.04080128 2.52575688 160.51940326 6.48196411 160.52812195 C7.55717819 160.53520676 8.63239227 160.54229156 9.7401886 160.54959106 C11.49442642 160.54587494 11.49442642 160.54587494 13.28410339 160.54208374 C14.5236528 160.54719467 15.76320221 160.5523056 17.04031372 160.55757141 C20.43295499 160.56907944 23.82535172 160.57154269 27.21799541 160.56900811 C30.05344935 160.56793688 32.88888087 160.57282563 35.72433001 160.57761353 C42.41517004 160.58870075 49.10595393 160.58915051 55.79679871 160.58309937 C62.69226721 160.57705893 69.58753171 160.58937403 76.48296541 160.61066943 C82.41008805 160.62829924 88.33714584 160.63428464 94.26429373 160.63103169 C97.80127199 160.62922093 101.33810468 160.63183417 104.87505913 160.64574623 C108.82008208 160.66068341 112.7648462 160.65134234 116.70988464 160.63973999 C117.87735229 160.64738373 119.04481995 160.65502747 120.24766541 160.66290283 C128.12914018 160.69527105 128.12914018 160.69527105 135.06169128 157.26742554 C136.83506703 153.70260673 137.31366901 150.80335994 137.3223877 146.84715271 C137.3294725 145.77193863 137.33655731 144.69672455 137.34385681 143.58892822 C137.34137939 142.41943634 137.33890198 141.24994446 137.33634949 140.04501343 C137.34146042 138.80546402 137.34657135 137.56591461 137.35183716 136.2888031 C137.36334519 132.89616183 137.36580843 129.5037651 137.36327386 126.11112142 C137.36220263 123.27566747 137.36709138 120.44023595 137.37187928 117.60478681 C137.3829665 110.91394678 137.38341626 104.22316289 137.37736511 97.53231812 C137.37132468 90.63684961 137.38363978 83.74158512 137.40493518 76.84615141 C137.42256498 70.91902877 137.42855039 64.99197098 137.42529744 59.06482309 C137.42348668 55.52784484 137.42609992 51.99101214 137.44001198 48.45405769 C137.45494916 44.50903474 137.44560809 40.56427062 137.43400574 36.61923218 C137.44164948 35.45176453 137.44929321 34.28429687 137.45716858 33.08145142 C137.4895368 25.19997664 137.4895368 25.19997664 134.06169128 18.26742554 C130.49687248 16.49404979 127.59762569 16.01544781 123.64141846 16.00672913 C122.56620438 15.99964432 121.4909903 15.99255951 120.38319397 15.98526001 C118.62895615 15.98897614 118.62895615 15.98897614 116.83927917 15.99276733 C115.59972977 15.9876564 114.36018036 15.98254547 113.08306885 15.97727966 C109.69042758 15.96577163 106.29803085 15.96330839 102.90538716 15.96584296 C100.06993321 15.96691419 97.2345017 15.96202544 94.39905256 15.95723754 C87.70821253 15.94615033 81.01742864 15.94570057 74.32658386 15.95175171 C67.43111535 15.95779214 60.53585086 15.94547704 53.64041716 15.92418164 C47.71329451 15.90655184 41.78623673 15.90056643 35.85908884 15.90381938 C32.32211058 15.90563014 28.78527788 15.9030169 25.24832344 15.88910484 C21.30330049 15.87416766 17.35853637 15.88350874 13.41349792 15.89511108 C12.24603027 15.88746735 11.07856262 15.87982361 9.87571716 15.87194824 C1.99424238 15.83958002 1.99424238 15.83958002 -4.93830872 19.26742554 Z " fill="#000000" transform="translate(38.93830871582031,15.732574462890625)"/>
<path d="M0 0 C1.1706601 -0.00852997 2.34132019 -0.01705994 3.54745483 -0.02584839 C4.82294693 -0.02494202 6.09843903 -0.02403564 7.4125824 -0.02310181 C8.77627428 -0.02908938 10.13996278 -0.03589545 11.50364685 -0.04345703 C15.19980066 -0.06109561 18.89586182 -0.06581135 22.59205365 -0.0670886 C24.90157803 -0.06851135 27.21107892 -0.07278316 29.52059746 -0.07808304 C37.57819487 -0.09657235 45.63572619 -0.10475455 53.69334412 -0.10317993 C61.20464492 -0.10197705 68.71565906 -0.1231108 76.22688729 -0.15466726 C82.67796638 -0.1808043 89.12895165 -0.1915484 95.58008331 -0.19026911 C99.43227123 -0.18975895 103.28420401 -0.19547231 107.13633919 -0.21662521 C110.75702087 -0.23596597 114.37720278 -0.23616124 117.99790192 -0.22159195 C119.960428 -0.21849897 121.92295392 -0.23520715 123.88540649 -0.25247192 C125.6371669 -0.23988846 125.6371669 -0.23988846 127.42431641 -0.22705078 C128.94659521 -0.22868508 128.94659521 -0.22868508 130.49962711 -0.2303524 C133.85813073 0.40074017 135.04199803 1.63433383 137.14866638 4.26742554 C137.67991638 6.26742554 137.67991638 6.26742554 137.64866638 8.26742554 C137.66413513 9.25742554 137.66413513 9.25742554 137.67991638 10.26742554 C136.90509567 13.18439763 135.45631313 14.36108872 133.14866638 16.26742554 C130.60894871 16.7696476 130.60894871 16.7696476 127.69006348 16.77294922 C126.58112228 16.78397171 125.47218109 16.7949942 124.32963562 16.80635071 C123.11757446 16.79817825 121.90551331 16.7900058 120.65672302 16.78158569 C118.73668709 16.79227333 118.73668709 16.79227333 116.77786255 16.80317688 C113.99603329 16.8185101 111.21457282 16.82131787 108.43271065 16.81441116 C104.03282384 16.80362359 99.63332227 16.82100791 95.23348999 16.84222412 C88.27324106 16.87248497 81.31310623 16.8841788 74.35279697 16.88780057 C61.89139833 16.89444672 49.43007906 16.92347888 36.9687776 16.97289693 C32.59632857 16.98938399 28.22404545 16.99481373 23.85156834 16.99130654 C21.7857458 16.99097447 19.71998788 16.99507204 17.6541748 17.00108337 C15.13720176 17.00819271 12.62019417 17.00813571 10.10322571 16.9995575 C8.99146469 17.00494034 7.87970367 17.01032318 6.73425293 17.01586914 C5.77064378 17.01620462 4.80703463 17.01654011 3.8142252 17.01688576 C0.81311929 17.2989641 -1.22533483 17.77116671 -3.85133362 19.26742554 C-5.81651018 22.73181796 -6.10212055 25.76011431 -6.1053009 29.69442749 C-6.11094055 30.77108673 -6.1165802 31.84774597 -6.12239075 32.95703125 C-6.11834229 34.12809418 -6.11429382 35.2991571 -6.11012268 36.50570679 C-6.11362732 37.74686249 -6.11713196 38.98801819 -6.1207428 40.26678467 C-6.12803002 43.66349613 -6.12633169 47.05996351 -6.11998463 50.45666122 C-6.11491327 54.0150866 -6.11961924 57.5735017 -6.12275696 61.13192749 C-6.12639329 67.10712552 -6.12160624 73.08227408 -6.11207581 79.0574646 C-6.10119187 85.96086626 -6.10471769 92.86414977 -6.11572862 99.76754856 C-6.12481098 105.69974814 -6.12608213 111.63191219 -6.12085128 117.56411648 C-6.11773679 121.10493849 -6.11730789 124.64570501 -6.12392426 128.18652344 C-6.13078575 132.13411027 -6.12126942 136.08156526 -6.11012268 140.02914429 C-6.11417114 141.20020721 -6.1182196 142.37127014 -6.12239075 143.57781982 C-6.1167511 144.65447906 -6.11111145 145.73113831 -6.1053009 146.84042358 C-6.10454685 147.77323654 -6.1037928 148.7060495 -6.1030159 149.66712952 C-5.82424373 152.54730909 -5.13212587 154.67856736 -3.85133362 157.26742554 C1.18757649 160.52151622 8.13897983 159.62478197 13.93186951 159.65805054 C20.5218733 159.83443726 20.5218733 159.83443726 23.73851013 162.05648804 C25.21900041 164.37769994 25.69124096 165.54265267 25.64866638 168.26742554 C25.65897888 168.92742554 25.66929138 169.58742554 25.67991638 170.26742554 C24.90010308 173.20319327 23.48769326 174.36227401 21.14866638 176.26742554 C18.34300232 176.78500366 18.34300232 176.78500366 15.13304138 176.79867554 C13.37927185 176.80640991 13.37927185 176.80640991 11.59007263 176.81430054 C9.76282654 176.79109741 9.76282654 176.79109741 7.89866638 176.76742554 C6.69597107 176.78289429 5.49327576 176.79836304 4.25413513 176.81430054 C-4.04129069 176.77787715 -9.79414645 175.82276551 -16.09352112 170.30258179 C-16.90176331 169.32611694 -16.90176331 169.32611694 -17.72633362 168.32992554 C-18.28063049 167.6815271 -18.83492737 167.03312866 -19.40602112 166.36508179 C-22.32777542 162.12458973 -23.10217784 158.43535566 -23.11875916 153.32911682 C-23.12728912 152.1389949 -23.13581909 150.94887299 -23.14460754 149.72268677 C-23.14370117 148.42542664 -23.1427948 147.1281665 -23.14186096 145.79159546 C-23.14784859 144.40483743 -23.15465468 143.01808274 -23.16221619 141.6313324 C-23.17986073 137.87086279 -23.18457094 134.11048425 -23.18584776 130.34997725 C-23.18727093 127.99820943 -23.19154369 125.64646463 -23.19684219 123.29470253 C-23.21533818 115.08336547 -23.22351345 106.87209328 -23.22193909 98.66073608 C-23.22073818 91.01773194 -23.24183156 83.37501042 -23.27342641 75.73207778 C-23.29961739 69.16119221 -23.31030519 62.59039879 -23.30902827 56.01946145 C-23.30851941 52.09896009 -23.31415995 48.1787099 -23.33538437 44.25826073 C-23.35481429 40.56862491 -23.35485929 36.87947861 -23.3403511 33.18982506 C-23.33727844 31.19944246 -23.35390663 29.20905957 -23.37123108 27.21875 C-23.31366579 18.99406581 -22.46015896 13.3856477 -16.88648987 7.02523804 C-16.23551331 6.48640991 -15.58453674 5.94758179 -14.91383362 5.39242554 C-14.26543518 4.83812866 -13.61703674 4.28383179 -12.94898987 3.71273804 C-8.7400017 0.81269032 -5.06915087 0.01673534 0 0 Z " fill="#000000" transform="translate(246.85133361816406,15.732574462890625)"/>
<path d="M0 0 C2.5 1.5 2.5 1.5 4 4 C4.60767035 7.31456556 4.84582354 8.86646367 4 12 C2.7221117 13.83998966 2.7221117 13.83998966 1.02680969 15.6877594 C0.38940165 16.3843825 -0.2480064 17.08100559 -0.90472984 17.79873848 C-4.58872729 21.66909467 -8.3335255 25.47222887 -12.11645508 29.24584961 C-13.0018396 30.13298645 -13.88722412 31.02012329 -14.79943848 31.93414307 C-17.20423997 34.34256615 -19.61123644 36.74875071 -22.01944184 39.15376735 C-24.54642389 41.67820066 -27.0709461 44.20509207 -29.59587097 46.73158264 C-33.82798851 50.96551257 -38.06219517 55.19734463 -42.29760742 59.42797852 C-47.19552944 64.32043857 -52.08981025 69.21651908 -56.98225671 74.11445421 C-61.19117147 78.32790152 -65.40202485 82.53940396 -69.61451644 86.74927527 C-72.12727099 89.26047055 -74.6393442 91.77233739 -77.14966774 94.28596306 C-79.94043053 97.08014152 -82.73525386 99.87023596 -85.53051758 102.65991211 C-86.36324692 103.49466568 -87.19597626 104.32941925 -88.05393982 105.18946838 C-88.81226105 105.94496979 -89.57058228 106.70047119 -90.35188293 107.47886658 C-91.01201291 108.13861953 -91.67214289 108.79837248 -92.3522768 109.47811794 C-95.23848021 112.14389408 -97.89040202 112.52415117 -101.80479431 112.46965027 C-104.53570729 111.88538884 -105.70515762 110.87395614 -107.74829102 108.9855957 C-108.44246124 108.34780182 -109.13663147 107.71000793 -109.85183716 107.05288696 C-113.41038578 103.65216801 -116.92666014 100.21590836 -120.40234375 96.73046875 C-121.16551407 95.96825516 -121.92868439 95.20604156 -122.71498108 94.42073059 C-124.31194789 92.82443932 -125.90767253 91.22690447 -127.50219727 89.62817383 C-129.95149736 87.17347177 -132.40614904 84.72421104 -134.86132812 82.27539062 C-136.4169878 80.71907093 -137.97233766 79.16244148 -139.52734375 77.60546875 C-140.2626683 76.87216843 -140.99799286 76.1388681 -141.75559998 75.38334656 C-142.43042923 74.70536514 -143.10525848 74.02738373 -143.80053711 73.32885742 C-144.3959581 72.73264084 -144.99137909 72.13642426 -145.60484314 71.5221405 C-148.29455476 68.58761815 -148.34796917 65.89845851 -148.26953125 61.9765625 C-148 60 -148 60 -146.5 57.5 C-143.66801648 55.80080989 -141.41474176 55.23993537 -138.10253906 55.44628906 C-129.24008861 57.78024606 -120.36809118 70.52512794 -114 76.9375 C-112.7359115 78.20661373 -111.47159044 79.47549589 -110.20703125 80.74414062 C-107.13533276 83.8267632 -104.06679992 86.91250428 -101 90 C-97.81386616 88.59332164 -95.68018813 86.92608986 -93.22958374 84.46336365 C-92.12762413 83.36336029 -92.12762413 83.36336029 -91.00340271 82.24113464 C-90.20741165 81.43638199 -89.41142059 80.63162933 -88.59130859 79.80249023 C-87.74537643 78.95524384 -86.89944427 78.10799744 -86.02787781 77.2350769 C-83.71250856 74.9143314 -81.4016072 72.58924234 -79.09245634 70.26231265 C-76.67494453 67.82856143 -74.25135625 65.40087811 -71.82827759 62.97267151 C-67.24061672 58.37363714 -62.65765526 53.76995246 -58.07672179 49.16421801 C-49.86708759 40.9102186 -41.65182561 32.66182955 -33.43136275 24.41861492 C-31.01952491 21.99974049 -28.60899728 19.57958592 -26.20124435 17.15664482 C-23.51955906 14.45837309 -20.83500178 11.76298883 -18.14990234 9.06811523 C-17.34986282 8.26133835 -16.5498233 7.45456146 -15.72554016 6.62333679 C-14.99654007 5.89282104 -14.26753998 5.1623053 -13.51644897 4.40965271 C-12.88191992 3.77160422 -12.24739086 3.13355574 -11.59363365 2.47617245 C-8.20817324 -0.65975743 -4.39944455 -0.59992426 0 0 Z " fill="#000000" transform="translate(412,24)"/>
</svg>
