<?xml version="1.0" encoding="UTF-8"?>
<svg version="1.1" xmlns="http://www.w3.org/2000/svg" width="512" height="512">
<path d="M0 0 C2.36075775 -0.00543161 4.7215121 -0.01256006 7.08226013 -0.02124023 C13.44584699 -0.03935175 19.80917214 -0.03245682 26.17276311 -0.01972389 C30.15754551 -0.01365167 34.14229096 -0.0139693 38.12707329 -0.01768494 C38.79178781 -0.01829787 39.45650234 -0.0189108 40.14135973 -0.01954231 C41.49235596 -0.0208214 42.84335218 -0.02211826 44.19434839 -0.02343267 C56.81545011 -0.03479563 69.43643497 -0.021792 82.05751752 -0.00023121 C92.85253102 0.01764005 103.6473724 0.01452716 114.44238281 -0.00390625 C127.02466244 -0.02538199 139.60684009 -0.03370173 152.18913549 -0.0214572 C153.53442504 -0.0201832 154.87971461 -0.01892571 156.2250042 -0.01768494 C157.21747695 -0.01675928 157.21747695 -0.01675928 158.22999965 -0.01581493 C162.85990769 -0.01238236 167.4897477 -0.01834381 172.11964607 -0.02760315 C178.3669651 -0.03922659 184.61396162 -0.03101774 190.86124611 -0.00802612 C193.14275326 -0.00277383 195.42428794 -0.00419248 197.70578384 -0.01307678 C213.37630261 -0.06843538 228.30572449 0.62550509 242.42163086 8.26757812 C243.0798584 8.61191895 243.73808594 8.95625977 244.41625977 9.31103516 C264.62294007 20.15135962 278.66349018 36.64654039 285.48851717 58.45472777 C288.14526234 67.28545095 288.39773864 75.52239579 288.3765564 84.69741821 C288.38029697 86.23717292 288.38490011 87.77692572 288.39028704 89.31667554 C288.4024824 93.53159274 288.40226067 97.74643037 288.39989829 101.96136117 C288.39948924 106.51369201 288.41053774 111.06599764 288.42001343 115.61831665 C288.43660587 124.5316197 288.4421222 133.44489629 288.44323818 142.3582135 C288.44418958 149.60663483 288.44830446 156.85504746 288.45463943 164.10346603 C288.4722478 184.6705478 288.48147905 205.23760871 288.47997849 225.80469806 C288.47989857 226.91280493 288.47981866 228.0209118 288.47973633 229.16259766 C288.47965457 230.27206341 288.47957281 231.38152917 288.47948857 232.52461509 C288.478676 250.49735556 288.49780744 268.47001215 288.52601306 286.44272836 C288.55477013 304.91314437 288.56855177 323.38351952 288.56682551 341.85395849 C288.56616254 352.21715486 288.571614 362.58026332 288.59318161 372.94343948 C288.61143066 381.76839138 288.61571028 390.59321552 288.60216276 399.41817816 C288.59565162 403.9162803 288.59544848 408.41413763 288.61286926 412.91221619 C288.62868777 417.0392342 288.62564778 421.16581508 288.608301 425.292823 C288.60525026 426.77666231 288.60878985 428.26053496 288.62002115 429.74433489 C288.78417576 452.99244838 280.20214617 472.99524307 264.35913086 489.83007812 C244.48427475 508.80011347 220.78710544 513.1381133 194.34765625 513.03515625 C191.98866852 513.04058692 189.62968418 513.04771484 187.27070618 513.05639648 C180.90699305 513.07452126 174.54354139 513.06760695 168.17982411 513.05488014 C164.19487179 513.04880997 160.20995644 513.04912453 156.2250042 513.05284119 C155.5604429 513.05345412 154.89588161 513.05406705 154.2111821 513.05469856 C152.86051006 513.05597765 151.50983804 513.05727451 150.15916603 513.05858892 C137.53613088 513.06995618 124.91321251 513.05694234 112.29019653 513.03538746 C101.49548926 513.01752411 90.70095416 513.02062174 79.90625 513.0390625 C67.32543294 513.06054491 54.7447179 513.06885358 42.16388506 513.05661345 C40.81828115 513.05533945 39.47267723 513.05408197 38.12707329 513.05284119 C37.46527051 513.05222408 36.80346774 513.05160698 36.12161033 513.05097118 C31.49268462 513.04753998 26.863827 513.05349739 22.23491096 513.0627594 C15.98596065 513.07439128 9.73733252 513.06615885 3.48841667 513.04318237 C1.2073304 513.03793407 -1.07378342 513.03934171 -3.3548584 513.04823303 C-30.47436767 513.14412169 -52.2764364 507.02592404 -72.37915039 488.18554688 C-89.72764712 470.11794148 -95.2038083 447.98736006 -95.22680664 423.57226562 C-95.23324924 421.95044848 -95.23997863 420.32863246 -95.24697876 418.70681763 C-95.25887998 415.32649032 -95.26266658 411.94626471 -95.26147461 408.56591797 C-95.26127082 404.25435278 -95.2886665 399.94344223 -95.32301903 395.63203239 C-95.34534133 392.28953094 -95.34931067 388.94718641 -95.34825516 385.60461807 C-95.35059948 384.01553194 -95.35935643 382.4264407 -95.37491989 380.83742905 C-95.46163057 371.07871423 -95.29963515 362.76801764 -88.74243164 354.95898438 C-81.83141218 349.12705392 -76.81153485 346.99034341 -67.69946289 347.21289062 C-60.12641583 348.0344451 -55.30674949 351.48386062 -50.39868164 357.12695312 C-45.57606652 364.77317191 -45.47134829 372.04628345 -45.51074409 380.83628464 C-45.51994773 383.08308839 -45.50952636 385.32907394 -45.49412537 387.57583618 C-45.45428323 393.9580984 -45.45281631 400.3402902 -45.45507812 406.72265625 C-45.45512955 410.64187774 -45.43580657 414.56065581 -45.40574455 418.4797554 C-45.39502814 420.67669958 -45.40698282 422.87275736 -45.41957092 425.06967163 C-45.39023042 436.51709783 -43.05664885 446.11746037 -34.89086914 454.51757812 C-27.12125621 460.79464423 -20.24261569 462.81958663 -10.39105225 462.78500366 C-9.44151366 462.78953478 -8.49197506 462.79406589 -7.51366258 462.79873431 C-4.33563752 462.81138262 -1.15778375 462.80975764 2.02026367 462.80810547 C4.30046306 462.81409048 6.58066041 462.82089596 8.8608551 462.82846069 C15.05313335 462.84613154 21.24535633 462.85081656 27.43765736 462.85209227 C31.30758298 462.85351391 35.17749455 462.85778378 39.04741669 462.8630867 C51.85496674 462.88063624 64.66247213 462.88992651 77.47003248 462.88842575 C78.1599828 462.88834584 78.84993311 462.88826593 79.56079102 462.88818359 C80.25158814 462.88810183 80.94238527 462.88802007 81.65411565 462.88793583 C92.843827 462.88712332 104.03340362 462.90625355 115.22307602 462.93446033 C126.72459529 462.96322337 138.22603151 462.97663287 149.72758937 462.97527277 C156.17997821 462.9747632 162.63221459 462.98044414 169.08457184 463.00162888 C175.1552363 463.02101606 181.22560294 463.02113212 187.296278 463.00659561 C189.52064131 463.00450698 191.74502328 463.0092116 193.96935463 463.02131653 C197.01371062 463.03680706 200.0570446 463.02743518 203.10137939 463.01205444 C203.97474921 463.02234157 204.84811903 463.0326287 205.74795461 463.04322755 C214.39071359 462.94720365 221.58489509 460.22628443 228.10913086 454.51757812 C228.76913086 454.51757812 229.42913086 454.51757812 230.10913086 454.51757812 C230.3759668 453.97617187 230.64280273 453.43476563 230.91772461 452.87695312 C231.78142752 451.16653818 232.67321296 449.47021084 233.58178711 447.78320312 C234.10643555 446.78804688 234.63108398 445.79289062 235.17163086 444.76757812 C235.69885742 443.78273438 236.22608398 442.79789062 236.76928711 441.78320312 C240.03566007 433.82201421 239.25331656 424.88010193 239.24284363 416.4181366 C239.24471369 414.98364064 239.24701517 413.54914519 239.24970895 412.11465055 C239.2558092 408.18620855 239.25569545 404.25778789 239.25451458 400.32934225 C239.25431012 396.08723905 239.25983357 391.84514263 239.26457214 387.6030426 C239.27286936 379.29721348 239.27562656 370.99139145 239.27618452 362.68555852 C239.27666009 355.9328865 239.2787169 349.18021682 239.28188515 342.42754555 C239.29068895 323.27307196 239.29530492 304.11860397 239.29455467 284.96412834 C239.29451472 283.93206706 239.29447476 282.90000578 239.29443359 281.83666992 C239.29439271 280.80334541 239.29435183 279.77002089 239.29430971 278.70538352 C239.29390325 261.95854362 239.30347353 245.21172622 239.31757196 228.46489283 C239.33194136 211.26014604 239.33884184 194.05541022 239.33797818 176.85065728 C239.33764642 167.19518446 239.34038435 157.53973522 239.35115623 147.88426781 C239.36026861 139.66380152 239.36243039 131.44336951 239.35564681 123.22290035 C239.35238543 119.03118147 239.35231115 114.83952831 239.36100006 110.6478157 C239.36888277 106.80542437 239.36741562 102.96315067 239.35871593 99.12076215 C239.35646337 97.08331113 239.36399563 95.04585641 239.37195557 93.00841969 C239.33348386 82.72550431 238.96073324 72.34704222 233.10913086 63.51757812 C232.5715918 62.99164063 232.03405273 62.46570312 231.48022461 61.92382812 C230.10913086 60.51757813 230.10913086 60.51757813 230.10913086 58.51757812 C229.54194336 58.24042969 228.97475586 57.96328125 228.39038086 57.67773438 C225.30518741 56.10872333 222.32526951 54.36832937 219.32788086 52.63867188 C215.89911778 50.90618067 212.82491736 50.39310274 209.00602531 50.38335705 C208.19259694 50.3788992 207.37916857 50.37444136 206.54109085 50.36984843 C205.65297246 50.37003279 204.76485407 50.37021716 203.849823 50.3704071 C202.42807839 50.36489207 202.42807839 50.36489207 200.97761166 50.35926563 C197.79341859 50.34823004 194.60925816 50.34438514 191.42504883 50.34057617 C189.14514563 50.33431141 186.86524346 50.3276646 184.58534241 50.32066345 C177.09067496 50.29962162 169.5960073 50.28926074 162.10131836 50.27929688 C159.52107864 50.27524932 156.94083902 50.2711324 154.36059952 50.26694679 C143.62721682 50.25007779 132.89383783 50.23544333 122.16044426 50.22819805 C119.3764127 50.22628827 116.59238114 50.22436792 113.80834961 50.22241211 C112.77045741 50.2216865 112.77045741 50.2216865 111.7115977 50.22094623 C100.50883284 50.21265017 89.30617491 50.18731965 78.10345672 50.15483143 C66.59296849 50.12172377 55.0825506 50.10407844 43.57201302 50.10055381 C37.11287743 50.09820366 30.65391086 50.08924742 24.1948204 50.06409264 C18.11598805 50.04080139 12.0374359 50.03658315 5.95857048 50.04685402 C3.7309787 50.04734923 1.50337308 50.04103314 -0.72417641 50.02729797 C-3.77300453 50.009555 -6.82082972 50.01669756 -9.86965942 50.02983093 C-10.74439348 50.01886169 -11.61912754 50.00789244 -12.5203687 49.99659079 C-21.70034633 50.09160321 -29.43932039 53.22013526 -36.13696289 59.52539062 C-41.89763449 66.06869244 -45.13590844 74.03972138 -45.14624023 82.74731445 C-45.15667862 84.56499077 -45.15667862 84.56499077 -45.16732788 86.41938782 C-45.16633087 87.71636093 -45.16533386 89.01333405 -45.16430664 90.34960938 C-45.17287814 91.70953821 -45.18288178 93.06945869 -45.19424438 94.42936707 C-45.24026541 100.17918901 -45.26509906 105.92895501 -45.27172852 111.67895508 C-45.27677466 115.20689022 -45.30117779 118.73428002 -45.33705521 122.26202965 C-45.35147035 124.24094355 -45.34425205 126.21997755 -45.33651733 128.19892883 C-45.42947004 136.75774113 -46.43484214 143.40176416 -52.03930664 150.07617188 C-58.95317818 155.91050909 -63.96918629 158.03637881 -73.08227539 157.82617188 C-80.24813928 157.03882383 -85.31845424 153.63172213 -90.38305664 148.68945312 C-95.73739418 140.97698765 -95.33459254 132.83091738 -95.28930664 123.79101562 C-95.29133277 122.35625054 -95.29424867 120.92148646 -95.29800415 119.48672485 C-95.30241075 116.48600416 -95.29605638 113.48555251 -95.28198242 110.48486328 C-95.26498438 106.67932588 -95.27468202 102.87442784 -95.29269981 99.06891441 C-95.30366305 96.10535068 -95.30003316 93.14193249 -95.29231644 90.1783638 C-95.29034396 88.77764431 -95.29266718 87.37691068 -95.2997551 85.97620773 C-95.39659168 61.44413421 -87.38640218 40.90065708 -70.50415039 23.04492188 C-64.15911528 16.90854262 -57.03618337 12.36916253 -49.26586914 8.26757812 C-48.68820801 7.95022705 -48.11054688 7.63287598 -47.51538086 7.3059082 C-32.62457174 -0.16699191 -16.23601742 -0.06328579 0 0 Z " fill="#000000" transform="translate(193.890869140625,-0.517578125)"/>
<path d="M0 0 C3.49298762 2.53701206 6.91629525 5.17397422 9.85546875 8.34765625 C9.85546875 9.00765625 9.85546875 9.66765625 9.85546875 10.34765625 C10.44595033 10.61351469 11.0364319 10.87937313 11.64480686 11.15328789 C13.91419247 12.37938329 15.40453759 13.6427343 17.22605896 15.45755005 C17.87222168 16.09662796 18.5183844 16.73570587 19.18412781 17.39414978 C20.23078362 18.44452171 20.23078362 18.44452171 21.29858398 19.51611328 C22.04216156 20.25457993 22.78573914 20.99304657 23.55184937 21.75389099 C26.0111239 24.1992544 28.46288588 26.65199002 30.9140625 29.10546875 C32.62250608 30.81002517 34.33117319 32.51435758 36.04005432 34.21847534 C39.62363196 37.79458669 43.20330301 41.37455533 46.78051758 44.95703125 C51.35623542 49.53853266 55.94318932 54.10859503 60.53340054 58.67556953 C64.06718102 62.19458527 67.59397503 65.72053896 71.1188221 69.24850082 C72.80650204 70.93566856 74.49653667 72.62048439 76.18899345 74.30286026 C78.5609129 76.66238533 80.92301919 79.03133313 83.28295898 81.40283203 C84.32657845 82.43498589 84.32657845 82.43498589 85.39128113 83.48799133 C92.378349 90.55057662 96.95909007 96.86606241 97.16796875 107.03515625 C96.88822802 126.55706265 74.71726097 141.6106402 61.85546875 154.41015625 C60.05184871 156.20874912 58.24846153 158.00757555 56.4453125 159.80664062 C52.50661362 163.73559456 48.56572784 167.6623389 44.62280273 171.58705139 C43.47541887 172.73006659 42.34829088 173.89391994 41.24633789 175.08079529 C39.85546875 176.34765625 39.85546875 176.34765625 37.85546875 176.34765625 C37.85546875 177.00765625 37.85546875 177.66765625 37.85546875 178.34765625 C36.61743164 179.55566406 36.61743164 179.55566406 34.765625 181.05078125 C30.60671642 184.58443459 26.7898568 188.37315906 22.9765625 192.26953125 C22.35681549 192.8996814 21.73706848 193.52983154 21.09854126 194.17907715 C18.50392704 196.81835259 15.91194642 199.45993103 13.33422852 202.11572266 C11.43252578 204.07207339 9.51821575 206.01534002 7.6015625 207.95703125 C6.74189125 208.85237579 6.74189125 208.85237579 5.86485291 209.76580811 C1.32560505 214.33396469 -2.82906374 216.89994713 -9.35546875 217.78125 C-17.28721012 217.79104227 -23.81047884 217.19591378 -29.921875 211.76953125 C-35.88052761 205.30096949 -37.69240198 198.90717901 -37.421875 190.20703125 C-36.30542486 178.69658757 -25.44571651 170.50359305 -17.7109375 162.81640625 C-16.39403175 161.50162292 -16.39403175 161.50162292 -15.05052185 160.16027832 C-12.27171629 157.38702829 -9.48943728 154.61729343 -6.70703125 151.84765625 C-4.8113326 149.9575482 -2.91643342 148.06664107 -1.02148438 146.17578125 C3.60152064 141.56374621 8.22737532 136.95458484 12.85546875 132.34765625 C11.62079361 132.34618969 10.38611847 132.34472313 9.11402893 132.34321213 C-20.20469567 132.3074984 -49.52330639 132.25124032 -78.84193575 132.1697353 C-82.45175234 132.15971802 -86.06156937 132.14987386 -89.67138672 132.14013672 C-90.74934623 132.13722466 -90.74934623 132.13722466 -91.84908271 132.13425377 C-103.48018794 132.10324554 -115.11127344 132.08625641 -126.74241221 132.07446203 C-138.67995807 132.06204435 -150.61740052 132.03452908 -162.5548811 131.99304318 C-169.2587827 131.97017732 -175.96252765 131.95474735 -182.66647339 131.9557724 C-188.97675992 131.95651725 -195.28671987 131.93863606 -201.59692192 131.90648842 C-203.91240385 131.89797171 -206.22792234 131.89625145 -208.54341316 131.90185356 C-211.70705833 131.90848798 -214.86966273 131.8905849 -218.03320312 131.86663818 C-218.94761893 131.8743986 -219.86203474 131.88215902 -220.80416012 131.8901546 C-227.80820341 131.79642429 -233.07931332 130.03372702 -238.38671875 125.3828125 C-238.92554688 124.73183594 -239.464375 124.08085937 -240.01953125 123.41015625 C-240.57382813 122.76175781 -241.128125 122.11335938 -241.69921875 121.4453125 C-246.17865222 114.94408068 -245.81916853 107.97624708 -245.14453125 100.34765625 C-243.46367542 93.68806292 -238.68074803 89.16218178 -233.14453125 85.34765625 C-228.35293112 82.8047188 -223.68058138 83.05810373 -218.39396667 83.06918335 C-217.40555843 83.06339095 -216.41715019 83.05759855 -215.39879018 83.05163062 C-212.08377962 83.03461294 -208.76890814 83.03175256 -205.45385742 83.02880859 C-203.07876239 83.01951165 -200.70367063 83.00934333 -198.32858276 82.99836731 C-192.54668719 82.97386641 -186.76481878 82.95846128 -180.98288371 82.94705223 C-174.25440893 82.93328574 -167.5259898 82.90832579 -160.79755155 82.88266893 C-148.79872793 82.83721185 -136.79989428 82.80059256 -124.80102539 82.76953125 C-113.14605957 82.73934127 -101.49111827 82.70498894 -89.83618164 82.66503906 C-89.11762932 82.66257751 -88.39907701 82.66011597 -87.65875038 82.65757982 C-84.05394214 82.64520514 -80.44913419 82.63274862 -76.84432638 82.62025142 C-46.94442864 82.51669986 -17.0445019 82.4276385 12.85546875 82.34765625 C12.28805969 81.79135025 11.72065063 81.23504425 11.13604736 80.66188049 C5.76792842 75.3943139 0.41223013 70.11456002 -4.93024826 64.8210001 C-7.67672891 62.1005152 -10.42762066 59.38483708 -13.18945312 56.67993164 C-15.85901285 54.06505072 -18.51585377 51.43782946 -21.16464996 48.80192375 C-22.17287368 47.80287589 -23.18545864 46.80820792 -24.20259857 45.81823921 C-30.89837272 39.29416778 -36.02626516 33.57138546 -37.7109375 24.1953125 C-37.69974651 16.216135 -36.0722077 9.83642934 -30.72265625 3.72265625 C-22.49609381 -3.70778724 -9.75237169 -5.80151749 0 0 Z " fill="#000000" transform="translate(275.14453125,148.65234375)"/>
</svg>
