<?xml version="1.0" encoding="UTF-8"?>
<svg version="1.1" xmlns="http://www.w3.org/2000/svg" width="512" height="512">
<path d="M0 0 C0.8976709 0.2475 1.7953418 0.495 2.72021484 0.75 C22.47659662 6.40496566 41.17620947 14.71151293 57 28 C58.17182237 28.95839768 59.34370044 29.91672727 60.515625 30.875 C90.12016943 55.37259291 108.16464422 89.97495848 113 128 C113.74633264 144.88747215 114.39723862 162.58141323 110 179 C109.71793701 180.12873535 109.71793701 180.12873535 109.43017578 181.28027344 C103.5183302 204.69249882 92.61490002 226.29541004 75.97265625 243.90625 C74.25182471 245.73271675 72.68830019 247.60280745 71.125 249.5625 C67.00870383 254.37609224 61.99893048 258.14981364 57 262 C55.9584375 262.80695313 54.916875 263.61390625 53.84375 264.4453125 C30.29816093 282.22071193 1.73707083 292.45772231 -27.76171875 293.4296875 C-29.69069573 293.501038 -31.61965009 293.57300184 -33.54858398 293.64550781 C-34.55090057 293.68244751 -35.55321716 293.71938721 -36.58590698 293.75744629 C-82.67273881 295.50418678 -127.35789871 301.38763807 -170 320 C-170.71236816 320.30341309 -171.42473633 320.60682617 -172.15869141 320.91943359 C-189.80077059 328.48149067 -206.20424182 338.79731284 -221 351 C-222.11181641 351.86625 -222.11181641 351.86625 -223.24609375 352.75 C-239.90897225 366.26219777 -247.38620913 386.5631308 -249.59863281 407.25854492 C-250.26393045 414.38063906 -250.29862743 421.50319712 -250.26074219 428.65112305 C-250.24986622 431.09252948 -250.26079916 433.53322276 -250.2734375 435.97460938 C-250.27211799 437.55729326 -250.26955993 439.13997671 -250.265625 440.72265625 C-250.26967346 441.43736588 -250.27372192 442.1520755 -250.27789307 442.88844299 C-250.20918648 450.35699128 -248.93774767 457.12808385 -244 463 C-236.63310991 468.61030803 -228.55991047 468.14369062 -219.74711609 468.11784363 C-218.60902852 468.11854821 -217.47094096 468.11925279 -216.29836589 468.11997873 C-212.4823427 468.12128782 -208.66636077 468.1156124 -204.8503418 468.11010742 C-202.11532549 468.10928014 -199.38031043 468.11005255 -196.64529419 468.11090088 C-191.51696435 468.11202004 -186.3886399 468.11138058 -181.26031063 468.10870007 C-171.18148075 468.10356806 -161.10270075 468.11193679 -151.02388 468.12532043 C-149.43600089 468.12736707 -147.84812177 468.1294094 -146.26024264 468.13144749 C-143.04575532 468.13560334 -139.83126809 468.13981845 -136.61678088 468.14405501 C-128.35788439 468.1548523 -120.09898714 468.16466081 -111.84008789 468.1730957 C-111.01146017 468.17394695 -110.18283245 468.1747982 -109.3290948 468.17567525 C-95.90132762 468.18889551 -82.47361982 468.1838765 -69.04585328 468.17302414 C-55.25149791 468.1623891 -41.45729037 468.17459004 -27.66296893 468.20710641 C-19.15901194 468.2263685 -10.65545015 468.22741144 -2.15149925 468.20495013 C3.67808923 468.1911902 9.5073898 468.19936624 15.33693854 468.22467472 C18.69843228 468.2386012 22.05859947 468.23959415 25.42016029 468.22084999 C29.06951085 468.20201217 32.71690853 468.2200802 36.36616516 468.24723816 C37.42143144 468.23296994 38.47669773 468.21870172 39.56394178 468.20400113 C46.85850763 468.31358006 51.48678313 470.19036912 57 475 C61.58457499 480.36730731 61.72630365 485.59136441 61.51171875 492.546875 C60.7439892 497.72758431 58.82192918 501.42488817 55 505 C48.81736519 509.46112816 43.72431456 509.56872499 36.23617554 509.50793457 C35.05513673 509.51417453 33.87409793 509.5204145 32.65727007 509.52684355 C29.39152283 509.54001034 26.12637328 509.5353091 22.86064124 509.52289867 C19.33352512 509.51383338 15.80648864 509.52782561 12.27938843 509.53881836 C5.3730566 509.55659578 -1.53310123 509.55276615 -8.43943985 509.5411678 C-14.05654836 509.53212628 -19.67360819 509.53091259 -25.29072189 509.53526306 C-26.09087483 509.53587599 -26.89102776 509.53648893 -27.71542775 509.53712043 C-29.34111252 509.53839938 -30.96679727 509.53969623 -32.59248202 509.5410108 C-47.83539839 509.55241546 -63.07821853 509.53930699 -78.32111911 509.51780933 C-91.38160819 509.49995899 -104.44195494 509.50302561 -117.50244141 509.52148438 C-132.68231306 509.54292861 -147.86210022 509.55129522 -163.04198492 509.53903532 C-164.6634511 509.53776119 -166.2849173 509.53650371 -167.90638351 509.53526306 C-169.10293022 509.53433741 -169.10293022 509.53433741 -170.32364959 509.53339306 C-175.92666995 509.52994926 -181.52963645 509.53574794 -187.13264847 509.54518127 C-193.97193837 509.5564431 -200.81104483 509.55327474 -207.65031393 509.5320583 C-211.13553423 509.52160055 -214.62044959 509.51733446 -218.10566711 509.53065491 C-221.8955031 509.54164724 -225.68449115 509.52780027 -229.47427368 509.50793457 C-230.56000691 509.51685746 -231.64574014 509.52578034 -232.76437438 509.53497362 C-248.49901972 509.37589663 -262.39332082 503.10975346 -273.71875 492.33984375 C-286.78285799 478.94018504 -291.30451219 464.22850785 -291.3359375 445.88671875 C-291.34238486 444.50877248 -291.34911457 443.13082751 -291.35610962 441.75288391 C-291.36804279 438.86736901 -291.37179526 435.98197335 -291.37060547 433.09643555 C-291.37044391 430.17658446 -291.38417501 427.25736738 -291.41162109 424.33764648 C-291.77098008 385.53878242 -283.13243177 354.01650422 -255.875 325.4375 C-233.75350588 304.03872515 -205.40971108 288.34296931 -177 277 C-176.30084473 276.71850098 -175.60168945 276.43700195 -174.88134766 276.14697266 C-159.78951091 270.14298093 -143.97046597 265.04456104 -128 262 C-131.11713878 258.7789566 -134.36345362 255.81317186 -137.75 252.875 C-143.14281878 248.04226626 -147.60257988 242.73819431 -152 237 C-152.67933594 236.12472656 -153.35867187 235.24945313 -154.05859375 234.34765625 C-165.24652735 219.49583796 -173.13823104 203.11844905 -178.3125 185.3125 C-178.67625732 184.06714478 -178.67625732 184.06714478 -179.04736328 182.79663086 C-182.49034183 170.35932707 -183.37721324 158.08609313 -183.3125 145.25 C-183.31067719 144.49921173 -183.30885437 143.74842346 -183.30697632 142.97488403 C-183.26222857 132.03238453 -182.82734439 121.62808974 -180 111 C-179.82839355 110.31808594 -179.65678711 109.63617188 -179.47998047 108.93359375 C-173.73132949 86.28832697 -163.1270357 65.7722301 -148 48 C-147.16339844 47.01 -146.32679688 46.02 -145.46484375 45 C-139.84059034 38.58246837 -133.78959173 33.15506039 -127 28 C-125.96359375 27.19820312 -124.9271875 26.39640625 -123.859375 25.5703125 C-90.14225068 0.08186109 -41.31760004 -11.41025417 0 0 Z M-112 70 C-112.80179688 70.80179688 -113.60359375 71.60359375 -114.4296875 72.4296875 C-136.38511726 95.60064278 -142.99957973 124.44877476 -142.17919922 155.56201172 C-140.76750856 182.64570097 -125.89991967 206.87826834 -106.93359375 225.37109375 C-91.22591983 239.44734482 -69.98433894 249.46343156 -49 252 C-47.8965625 252.1340625 -46.793125 252.268125 -45.65625 252.40625 C-16.43156523 255.15386994 11.92139332 245.82837414 34.46484375 227.21484375 C54.99931216 209.27486904 70.31456895 183.49455918 72.22119141 155.78540039 C73.36388466 122.40660118 65.17694629 95.14843417 42.44140625 70.19140625 C26.01423229 53.00128662 2.73602312 40.86918961 -21 38 C-22.65515625 37.79890625 -22.65515625 37.79890625 -24.34375 37.59375 C-57.42319968 34.48371627 -88.72641494 46.72641494 -112 70 Z " fill="#000000" transform="translate(291,3)"/>
<path d="M0 0 C4.840136 2.98902439 8.32528295 6.43626322 10.234375 11.89453125 C10.79094843 17.00933778 10.70067236 22.09912552 10.625 27.234375 C10.61753016 28.72651915 10.61184074 30.21867318 10.60784912 31.71083069 C10.59265097 35.61878022 10.55342085 39.52612545 10.5090332 43.43383789 C10.46795379 47.42911609 10.44981121 51.4244929 10.4296875 55.41992188 C10.38691966 63.24506575 10.31874064 71.0697135 10.234375 78.89453125 C11.0537706 78.88120758 11.8731662 78.86788391 12.71739197 78.85415649 C20.46991965 78.73353141 28.22198723 78.6423819 35.97521114 78.58365822 C39.96052788 78.55245149 43.94506405 78.51017842 47.92993164 78.44189453 C51.78145997 78.37631461 55.63224145 78.34074519 59.48428535 78.32526779 C60.94786894 78.31424992 62.41141534 78.29273465 63.87467766 78.26015091 C72.75074136 78.07050563 79.51113564 78.52483674 86.234375 84.89453125 C90.81894999 90.26183856 90.96067865 95.48589566 90.74609375 102.44140625 C89.76547116 109.05873732 86.72560066 112.939421 81.56835938 116.98681641 C75.62132119 120.29366181 68.49643842 119.38244109 61.89453125 119.28515625 C60.4023871 119.27768641 58.91023307 119.27199699 57.41807556 119.26800537 C53.51012603 119.25280722 49.6027808 119.2135771 45.69506836 119.16918945 C41.69979016 119.12811004 37.70441335 119.10996746 33.70898438 119.08984375 C25.8838405 119.04707591 18.05919275 118.97889689 10.234375 118.89453125 C10.24769867 119.71392685 10.26102234 120.53332245 10.27474976 121.37754822 C10.39537484 129.1300759 10.48652435 136.88214348 10.54524803 144.63536739 C10.57645476 148.62068413 10.61872783 152.6052203 10.68701172 156.59008789 C10.75259164 160.44161622 10.78816106 164.2923977 10.80363846 168.1444416 C10.81465633 169.60802519 10.8361716 171.07157159 10.86875534 172.53483391 C11.05840062 181.41089761 10.60406951 188.17129189 4.234375 194.89453125 C-1.13293231 199.47910624 -6.35698941 199.6208349 -13.3125 199.40625 C-19.92983107 198.42562741 -23.81051475 195.38575691 -27.85791016 190.22851562 C-31.16475556 184.28147744 -30.25353484 177.15659467 -30.15625 170.5546875 C-30.14878016 169.06254335 -30.14309074 167.57038932 -30.13909912 166.07823181 C-30.12390097 162.17028228 -30.08467085 158.26293705 -30.0402832 154.35522461 C-29.99920379 150.35994641 -29.98106121 146.3645696 -29.9609375 142.36914062 C-29.91816966 134.54399675 -29.84999064 126.719349 -29.765625 118.89453125 C-30.5850206 118.90785492 -31.4044162 118.92117859 -32.24864197 118.93490601 C-40.00116965 119.05553109 -47.75323723 119.1466806 -55.50646114 119.20540428 C-59.49177788 119.23661101 -63.47631405 119.27888408 -67.46118164 119.34716797 C-71.31270997 119.41274789 -75.16349145 119.44831731 -79.01553535 119.46379471 C-80.47911894 119.47481258 -81.94266534 119.49632785 -83.40592766 119.52891159 C-92.28199136 119.71855687 -99.04238564 119.26422576 -105.765625 112.89453125 C-110.35019999 107.52722394 -110.49192865 102.30316684 -110.27734375 95.34765625 C-109.29672116 88.73032518 -106.25685066 84.8496415 -101.09960938 80.80224609 C-95.15257119 77.49540069 -88.02768842 78.40662141 -81.42578125 78.50390625 C-79.9336371 78.51137609 -78.44148307 78.51706551 -76.94932556 78.52105713 C-73.04137603 78.53625528 -69.1340308 78.5754854 -65.22631836 78.61987305 C-61.23104016 78.66095246 -57.23566335 78.67909504 -53.24023438 78.69921875 C-45.4150905 78.74198659 -37.59044275 78.81016561 -29.765625 78.89453125 C-29.77894867 78.07513565 -29.79227234 77.25574005 -29.80599976 76.41151428 C-29.92662484 68.6589866 -30.01777435 60.90691902 -30.07649803 53.15369511 C-30.10770476 49.16837837 -30.14997783 45.1838422 -30.21826172 41.19897461 C-30.28384164 37.34744628 -30.31941106 33.4966648 -30.33488846 29.6446209 C-30.34590633 28.18103731 -30.3674216 26.71749091 -30.40000534 25.25422859 C-30.58965062 16.37816489 -30.13531951 9.61777061 -23.765625 2.89453125 C-17.29271618 -2.6344117 -7.84970384 -3.13766411 0 0 Z " fill="#000000" transform="translate(421.765625,313.10546875)"/>
</svg>
