<?xml version="1.0" encoding="UTF-8"?>
<svg version="1.1" xmlns="http://www.w3.org/2000/svg" width="512" height="512">
<path d="M0 0 C1.07575287 -0.00671722 2.15150574 -0.01343445 3.25985718 -0.02035522 C6.80512146 -0.03930389 10.35019608 -0.043258 13.89550781 -0.04541016 C16.37021969 -0.05184066 18.84493082 -0.05856921 21.31964111 -0.06558228 C26.50445314 -0.07754753 31.68919858 -0.08126391 36.87402344 -0.08007812 C43.49916368 -0.07987508 50.12387428 -0.10716632 56.74891281 -0.14162254 C61.86035094 -0.16392355 66.97168624 -0.16791466 72.08316803 -0.16685867 C74.52466562 -0.16921022 76.96616624 -0.17800838 79.40761566 -0.19352341 C82.83194047 -0.21324567 86.25534607 -0.20731991 89.6796875 -0.1953125 C90.67642487 -0.20655151 91.67316223 -0.21779053 92.70010376 -0.22937012 C104.63421741 -0.12369562 113.61792944 4.2088225 122.19238281 12.25537109 C132.96223043 23.36679969 133.97567521 35.95729473 134.74438477 50.66040039 C136.0019377 74.65124735 138.9413797 97.8796791 145.75488281 121.00537109 C150.15389373 135.95225828 153.6613583 150.56950018 146.09863281 165.29052734 C144.20409768 168.04047609 142.15536911 170.66068852 140.09863281 173.29052734 C138.89930996 174.85846316 137.70145166 176.42752005 136.50488281 177.99755859 C135.87428955 178.8215918 135.24369629 179.645625 134.59399414 180.49462891 C128.04524172 189.05536192 121.57920391 197.66864379 115.20947266 206.36328125 C109.28909049 214.42845718 103.20634346 222.36673662 97.09863281 230.29052734 C100.98234587 238.32780273 105.1760262 246.06091051 109.84863281 253.66552734 C110.46134033 254.66575928 111.07404785 255.66599121 111.70532227 256.6965332 C116.51911004 264.48689575 121.56102406 271.99949159 127.09863281 279.29052734 C127.52708496 279.85497559 127.95553711 280.41942383 128.39697266 281.00097656 C142.49410883 299.48000256 157.69273466 316.96901057 176.09863281 331.29052734 C177.03578125 332.06783203 177.97292969 332.84513672 178.93847656 333.64599609 C197.0720137 348.58136327 217.50542551 361.08347657 238.09863281 372.29052734 C244.12429085 368.3894014 249.85329319 364.25219859 255.47363281 359.79052734 C262.62927149 354.16340172 269.89595921 348.71582046 277.25 343.35131836 C282.16777486 339.75164167 286.97095526 336.04204944 291.72363281 332.22802734 C302.1139847 323.9760437 312.75255868 318.45422698 326.37207031 318.80615234 C334.45308748 319.85651516 342.27345554 322.32433182 350.11572266 324.48242188 C373.30418833 330.76445014 396.94965897 334.52809488 420.97753906 335.11474609 C435.29129964 335.51419345 447.35412716 337.96078085 458.07519531 348.17333984 C462.01587619 352.44939781 464.93337448 356.89277435 467.09863281 362.29052734 C467.4396402 363.10040604 467.78064758 363.91028473 468.13198853 364.7447052 C469.44563902 369.56340748 469.39362998 374.10523771 469.38916016 379.07836914 C469.39923599 380.6917794 469.39923599 380.6917794 469.40951538 382.33778381 C469.42848939 385.88848512 469.43241961 389.43899726 469.43457031 392.98974609 C469.44099968 395.46588722 469.44772815 397.94202758 469.45474243 400.41816711 C469.46671446 405.60895548 469.47042343 410.79967731 469.46923828 415.99047852 C469.46903534 422.6234945 469.49631276 429.25608086 469.5307827 435.88899517 C469.55308542 441.0047245 469.55707474 446.12035108 469.55601883 451.23612404 C469.55837065 453.6804127 469.56717038 456.12470437 469.58268356 458.56894493 C469.60240671 461.998168 469.59647943 465.4264732 469.58447266 468.85571289 C469.59571167 469.8540213 469.60695068 470.85232971 469.61853027 471.88088989 C469.51032933 484.11896183 464.95191288 493.4828345 456.33691406 502.04052734 C448.39678046 509.17772609 439.99596849 512.60311651 429.22753906 512.59130859 C428.10832817 512.59977562 428.10832817 512.59977562 426.96650696 512.6084137 C424.5311717 512.62045807 422.09646748 512.61413837 419.66113281 512.60302734 C418.81850891 512.60087219 417.97588501 512.59871704 417.10772705 512.59649658 C318.61772892 512.19476198 221.26542861 476.60091495 128.83398438 405.72167969 C127.29702916 404.45414572 125.74205115 403.20853527 124.18457031 401.96630859 C112.46572754 392.61543258 101.80445323 382.08709337 91.17178345 371.53890991 C89.7675058 370.14652866 88.35927835 368.75813448 86.95092773 367.36987305 C81.63975027 362.06544851 76.73156095 356.59644655 72.06005859 350.71948242 C70.23016942 348.45341728 68.32752656 346.30150253 66.34863281 344.16552734 C60.14212651 337.24619457 54.65168255 329.73529276 49.09863281 322.29052734 C48.54981445 321.55592285 48.00099609 320.82131836 47.43554688 320.06445312 C-10.13995881 242.64063956 -42.58410477 146.45049428 -43.33886719 49.97802734 C-43.35099243 49.17056061 -43.36311768 48.36309387 -43.37561035 47.53115845 C-43.55447199 33.59188702 -41.67339367 22.82374326 -31.90136719 12.29052734 C-22.51825776 2.96983328 -12.98895308 -0.01171618 0 0 Z " fill="#000000" transform="translate(42.9013671875,-0.29052734375)"/>
</svg>
