<?xml version="1.0" encoding="UTF-8"?>
<svg version="1.1" xmlns="http://www.w3.org/2000/svg" width="512" height="512">
<path d="M0 0 C0.66402832 0.18191895 1.32805664 0.36383789 2.01220703 0.55126953 C30.07170198 8.37158705 55.53961183 26.87769956 73 50 C73.59167969 50.77601562 74.18335938 51.55203125 74.79296875 52.3515625 C86.14847698 67.89067902 94.14459009 85.39838515 99 104 C99.30035156 105.13179688 99.60070312 106.26359375 99.91015625 107.4296875 C106.44256735 137.14456217 103.40991128 172.92655238 87.3125 199.125 C83.65746394 206.19140305 86.00033433 212.32831492 88.2265625 219.46630859 C89.39757958 223.30242452 90.41910896 227.17520009 91.44042969 231.0534668 C91.969894 233.06226974 92.51172842 235.06786334 93.06738281 237.06958008 C95.03920392 244.36139479 96.11759565 250.84149686 93.17578125 258.0078125 C90.33061709 262.82852254 85.9381476 266.09025725 80.9375 268.4375 C74.21667283 269.7244669 68.63984026 268.60459835 62.21484375 266.7421875 C60.53332254 266.27691196 58.85167813 265.8120815 57.16992188 265.34765625 C54.54589532 264.61199386 51.92359298 263.87102215 49.3034668 263.12158203 C46.75696342 262.39700404 44.20534784 261.69345816 41.65234375 260.9921875 C40.48492897 260.64859695 40.48492897 260.64859695 39.29393005 260.29806519 C34.5058836 258.9977098 31.67431021 258.86919599 27 261 C25.83726562 261.51175781 24.67453125 262.02351563 23.4765625 262.55078125 C22.85668457 262.83469727 22.23680664 263.11861328 21.59814453 263.41113281 C4.22573274 271.34715661 -14.69181562 277.14828409 -34 276 C-33.80664062 276.77859375 -33.61328125 277.5571875 -33.4140625 278.359375 C-22.2399834 326.37472481 -31.9204359 376.68053188 -57.62719727 418.42382812 C-65.1411748 430.20088024 -74.44728377 440.84076211 -84 451 C-84.5671875 451.6084375 -85.134375 452.216875 -85.71875 452.84375 C-90.73644108 458.05078792 -96.31259253 462.54805932 -102 467 C-102.55187988 467.4336084 -103.10375977 467.8672168 -103.67236328 468.31396484 C-113.5390344 476.00159592 -123.89622669 482.26228679 -135 488 C-135.6177832 488.32452148 -136.23556641 488.64904297 -136.87207031 488.98339844 C-159.24829 500.61208277 -185.65612831 508.04004978 -210.953125 508.203125 C-211.68685837 508.21018463 -212.42059174 508.21724426 -213.17655945 508.22451782 C-243.49134844 508.44985005 -273.3836347 504.96757766 -300.671875 490.5859375 C-301.4656958 490.16932861 -302.2595166 489.75271973 -303.07739258 489.32348633 C-304.60507718 488.50725679 -306.12165219 487.66973323 -307.6237793 486.80737305 C-308.32414307 486.4287915 -309.02450684 486.05020996 -309.74609375 485.66015625 C-310.35122803 485.31605713 -310.9563623 484.97195801 -311.57983398 484.61743164 C-318.59784419 482.82700011 -326.37515597 485.74335719 -333.1171875 487.6875 C-335.04293828 488.22667134 -336.96872051 488.76573037 -338.89453125 489.3046875 C-341.88580353 490.15093172 -344.87614532 491.00032649 -347.86572266 491.85253906 C-350.78063945 492.68071131 -353.698692 493.497044 -356.6171875 494.3125 C-357.49462616 494.56668701 -358.37206482 494.82087402 -359.27609253 495.08276367 C-369.07150712 497.81001667 -378.49279684 499.44534755 -388 495 C-394.19077341 491.18117043 -397.26889488 486.01346029 -399.6015625 479.2578125 C-401.00566574 471.30122748 -399.05048086 464.46831175 -396.90234375 456.8359375 C-396.25970973 454.47397354 -395.61713333 452.1119939 -394.97460938 449.75 C-393.95519234 446.05144373 -392.9316875 442.35405025 -391.90600586 438.65722656 C-390.91550624 435.0736479 -389.93965616 431.48630948 -388.96484375 427.8984375 C-388.49775246 426.24356827 -388.49775246 426.24356827 -388.02122498 424.55526733 C-387.60067589 423.00302963 -387.60067589 423.00302963 -387.17163086 421.41943359 C-386.92070175 420.5153476 -386.66977264 419.6112616 -386.41123962 418.67977905 C-385.63764238 413.63875295 -386.96857988 409.56809189 -389.2578125 405.12109375 C-389.71534912 404.21077393 -390.17288574 403.3004541 -390.64428711 402.36254883 C-391.13292236 401.39728271 -391.62155762 400.4320166 -392.125 399.4375 C-402.76186731 377.74477385 -409.9799173 354.08359227 -410.23828125 329.75 C-410.2480751 328.98267548 -410.25786896 328.21535095 -410.26795959 327.42477417 C-410.52059529 302.47782429 -408.20223017 279.716526 -400 256 C-399.57203125 254.75734375 -399.1440625 253.5146875 -398.703125 252.234375 C-385.43456695 216.79951997 -361.60611307 185.23993919 -331 163 C-330.13882568 162.37230713 -330.13882568 162.37230713 -329.26025391 161.73193359 C-287.25066799 131.52981054 -238.23818967 122.66833191 -187.69287109 129.55371094 C-184.34264991 130.10894252 -181.22395118 130.94221288 -178 132 C-178.03480469 131.33097656 -178.06960937 130.66195312 -178.10546875 129.97265625 C-178.92687634 100.83224423 -166.00851592 68.77535094 -147 47 C-146.26652344 46.15695313 -145.53304688 45.31390625 -144.77734375 44.4453125 C-142.55040097 41.9318848 -140.28541093 39.46027333 -138 37 C-137.39929688 36.33355469 -136.79859375 35.66710938 -136.1796875 34.98046875 C-103.10097487 -0.17461329 -45.76671793 -13.23309473 0 0 Z M-126.97265625 54.6640625 C-146.77885869 77.48508188 -158.44775705 107.65072265 -157 138 C-156.04867187 138.36738281 -156.04867187 138.36738281 -155.078125 138.7421875 C-128.45110352 149.40770715 -105.84322423 164.40380628 -85 184 C-84.36320312 184.58265625 -83.72640625 185.1653125 -83.0703125 185.765625 C-64.70349569 203.16576724 -50.12196715 228.11994753 -41.8046875 251.796875 C-41.19555289 253.944979 -41.19555289 253.944979 -40 255 C-20.97971992 256.54698278 -1.56261357 251.70257048 15.234375 242.80078125 C15.93796143 242.42985352 16.64154785 242.05892578 17.36645508 241.67675781 C18.70187381 240.95827955 20.02595293 240.21810624 21.3347168 239.45214844 C31.18031366 234.06976748 43.26916466 239.78397656 53.375 242.5625 C55.70813138 243.20053706 58.04174803 243.83659812 60.37661743 244.46824646 C61.82119703 244.85935748 63.26475339 245.25427282 64.7071228 245.65345764 C67.56993929 246.43113376 70.01742506 247 73 247 C72.37485958 241.89951654 71.30374116 237.07011155 69.8984375 232.125 C69.48643145 230.63035921 69.0749901 229.13556266 68.6640625 227.640625 C68.0203205 225.31529132 67.3725486 222.99134756 66.71484375 220.66992188 C66.0762716 218.40815286 65.4549434 216.14219025 64.8359375 213.875 C64.63704926 213.18937988 64.43816101 212.50375977 64.23324585 211.79736328 C62.66600435 205.9759513 62.7387537 200.6666929 65.671875 195.30859375 C66.00413086 194.68178711 66.33638672 194.05498047 66.67871094 193.40917969 C67.03223633 192.75852539 67.38576172 192.10787109 67.75 191.4375 C81.16323905 165.50842862 84.99918945 136.45142955 78 108 C77.83371094 107.30358398 77.66742188 106.60716797 77.49609375 105.88964844 C74.78015757 94.82975276 70.60911973 84.89725111 65 75 C64.65453125 74.39027344 64.3090625 73.78054687 63.953125 73.15234375 C49.58087575 48.32267434 25.53414933 30.00180152 -2 22 C-11.81217548 19.433987 -21.84389197 17.36328225 -32 17 C-32.90105469 16.96003906 -33.80210937 16.92007812 -34.73046875 16.87890625 C-69.54355175 16.08022553 -102.7387721 29.58769158 -126.97265625 54.6640625 Z M-292 164 C-292.65613281 164.31163086 -293.31226563 164.62326172 -293.98828125 164.94433594 C-309.50462859 172.41019553 -323.30190456 182.561758 -335.56835938 194.59912109 C-336.92047611 195.92218485 -338.29554397 197.22167523 -339.671875 198.51953125 C-361.8595098 219.84584483 -377.28679594 249.6013945 -384.8125 279.25 C-385.00739014 280.01666992 -385.20228027 280.78333984 -385.40307617 281.57324219 C-388.38190467 294.03469662 -389.38143212 306.41939144 -389.3125 319.1875 C-389.31034485 319.90988861 -389.3081897 320.63227722 -389.30596924 321.3765564 C-389.18080315 347.59812916 -383.27638624 372.42217091 -370.5546875 395.48828125 C-370.14130127 396.24149658 -369.72791504 396.99471191 -369.30200195 397.77075195 C-368.50024966 399.21270589 -367.68204355 400.64568545 -366.84448242 402.06713867 C-366.47427979 402.72560791 -366.10407715 403.38407715 -365.72265625 404.0625 C-365.39015869 404.63097656 -365.05766113 405.19945312 -364.71508789 405.78515625 C-362.20777915 413.55105071 -365.19072756 421.37541066 -367.31640625 428.890625 C-367.6517186 430.11279724 -367.98703094 431.33496948 -368.33250427 432.59417725 C-369.39955555 436.48218564 -370.479139 440.36651578 -371.5625 444.25 C-372.99218738 449.37704585 -374.40776807 454.50774359 -375.81640625 459.640625 C-376.14967422 460.81981506 -376.4829422 461.99900513 -376.8263092 463.21392822 C-377.12669601 464.30896667 -377.42708282 465.40400513 -377.73657227 466.53222656 C-378.00526627 467.49404846 -378.27396027 468.45587036 -378.55079651 469.44683838 C-379.00757692 472.04306535 -378.85991394 473.53704221 -378 476 C-374.53919096 477.18074291 -372.33059586 476.80385818 -368.8359375 475.84423828 C-367.29413818 475.42853073 -367.29413818 475.42853073 -365.72119141 475.00442505 C-364.61694824 474.69616791 -363.51270508 474.38791077 -362.375 474.0703125 C-361.23595215 473.7605246 -360.0969043 473.45073669 -358.92333984 473.13156128 C-355.27967877 472.138434 -351.63985888 471.1319636 -348 470.125 C-345.54711981 469.45353214 -343.09399741 468.78294844 -340.640625 468.11328125 C-335.23418799 466.63663101 -329.83019932 465.15136074 -324.42822266 463.65847778 C-317.9807786 461.91008018 -311.51173377 460.3028764 -305.32421875 463.6875 C-304.10294205 464.44393378 -302.8909844 465.21556763 -301.6875 466 C-264.57645649 488.36878697 -219.30725283 491.81533864 -177.8125 481.75 C-154.72428471 475.76550922 -132.70396859 465.95764115 -114 451 C-113.41669922 450.53480957 -112.83339844 450.06961914 -112.23242188 449.59033203 C-77.51415031 421.56665706 -57.60290187 381.1230702 -52.21165466 337.09460449 C-51.59745342 331.01626606 -51.75486734 324.85553728 -51.75 318.75 C-51.74932526 317.99089325 -51.74865051 317.2317865 -51.74795532 316.44967651 C-51.76495002 304.40043572 -52.37169481 292.7989173 -55 281 C-55.16628906 280.22769043 -55.33257812 279.45538086 -55.50390625 278.65966797 C-62.25397857 248.16559128 -76.97112264 220.77100707 -98.66162109 198.38525391 C-99.81571576 197.19073856 -100.95076858 195.97787918 -102.08203125 194.76171875 C-131.99647857 163.33580462 -178.81981636 149.21513609 -221.06665039 147.9375 C-245.64059664 147.69368062 -269.92730855 153.32331172 -292 164 Z " fill="#000000" transform="translate(410,4)"/>
<path d="M0 0 C15.29697712 14.79118795 23.32312367 32.60658353 24.43359375 53.89453125 C24.45704589 75.91609239 16.21842706 94.46661973 1 110.25 C-1.58025199 112.76530286 -4.31557034 114.95087804 -7.1875 117.125 C-11.45787107 120.36057125 -15.12912617 123.69575234 -17.5625 128.5625 C-17.82964528 130.56028212 -18.07645112 132.56080549 -18.3125 134.5625 C-19.73703676 143.91489351 -22.79861676 151.13538226 -30.34375 157.08984375 C-38.30867912 162.37642522 -46.09179141 163.69246154 -55.5625 162.5625 C-63.69876349 160.62310856 -70.41671991 156.19509158 -75.1328125 149.25 C-81.87747032 137.53356584 -80.62495897 123.4926 -77.46875 110.70703125 C-72.52240657 93.54407237 -61.19294595 80.83714394 -47.421875 69.85546875 C-42.78111603 66.04832759 -39.27892574 62.44395885 -37.5625 56.5625 C-37.5625 52.74913044 -38.27095739 51.02063839 -40.3125 47.8125 C-42.75464074 45.37035926 -44.21413743 44.35972918 -47.5625 43.5625 C-51.3275875 43.86985408 -54.35294184 44.56544159 -57.5625 46.5625 C-58.69030226 48.38429307 -58.69030226 48.38429307 -59.4375 50.5625 C-63.48323832 60.30049805 -67.92727769 68.27059268 -77.9453125 72.58984375 C-87.13430972 75.71525503 -95.69002046 75.51914628 -104.5625 71.5625 C-111.39613539 67.87233689 -117.76108892 61.5776393 -120.12109375 54.0078125 C-122.13068489 42.87503326 -120.41301495 33.63763877 -115.5625 23.5625 C-115.1396875 22.62792969 -114.716875 21.69335938 -114.28125 20.73046875 C-106.0363442 3.97701191 -90.75165578 -7.92125978 -73.5625 -14.4375 C-48.83800682 -22.48253771 -19.46798173 -17.87742995 0 0 Z M-86.30859375 18.14453125 C-93.27847548 25.62175272 -98.71501206 34.10040445 -100.0625 44.375 C-99.43691111 48.36312917 -98.6463476 49.94122954 -95.5625 52.5625 C-92.80794393 53.61743637 -90.49274279 53.90823464 -87.5625 53.5625 C-81.51489719 50.36082792 -80.16305113 45.61309047 -77.7578125 39.43359375 C-74.61640991 31.88806792 -68.75924865 28.05281503 -61.5625 24.5625 C-53.29120195 21.38458022 -43.79167623 21.92322124 -35.6875 25.375 C-34.2999634 26.0800186 -32.9234024 26.80734857 -31.5625 27.5625 C-30.510625 28.119375 -29.45875 28.67625 -28.375 29.25 C-21.41747842 34.97062886 -17.78906483 42.71955167 -16.5625 51.5625 C-16.11722054 62.74845989 -19.15071247 70.8169242 -26.375 79.25 C-30.78560489 83.95850691 -35.57418624 88.1592304 -40.59765625 92.19921875 C-50.51431342 100.39622439 -56.47736123 110.83730733 -58.5625 123.5625 C-59.27938265 131.4824677 -59.27938265 131.4824677 -56.6875 138.75 C-53.93848602 141.09474722 -52.90188697 141.52407883 -49.25 141.9375 C-45.42043506 141.89305459 -45.42043506 141.89305459 -42.6875 139.1875 C-39.67470485 135.46581188 -39.33453478 133.14655592 -38.75 128.4375 C-36.61622825 114.55274239 -28.08228322 106.6809111 -18 97.5 C-6.03365911 86.57706461 2.29929398 76.39168897 3.4375 59.5625 C3.57414383 43.50685013 -0.75891792 29.71431859 -11.8125 17.8125 C-33.31332214 -2.15596956 -65.07139852 -2.20636049 -86.30859375 18.14453125 Z " fill="#000000" transform="translate(238.5625,214.4375)"/>
<path d="M0 0 C7.10611563 5.61009129 10.30370481 13.09463727 11.41015625 21.9765625 C11.754582 30.45243105 9.29186605 38.28940613 3.92578125 44.8671875 C-2.60289685 51.46667556 -9.88208484 54.64355767 -19.125 55.0625 C-28.00867203 54.85533618 -35.6925493 51.89535354 -42.15234375 45.75390625 C-48.09115354 38.63002784 -50.26158969 30.79090843 -50.15234375 21.69921875 C-49.40397239 13.57253818 -46.15579824 6.00950382 -39.875 0.6875 C-26.88643624 -8.2006595 -13.26768658 -8.71052467 0 0 Z M-26.875 17.6875 C-29.05124628 20.24222389 -29.00431655 22.45658992 -28.8125 25.6875 C-28.30675205 28.80337241 -27.88566049 29.67495825 -25.75 32.1875 C-22.07379854 34.10551815 -19.96999984 34.34562497 -15.875 33.6875 C-12.34078972 31.15208828 -11.10258074 29.38288558 -9.75 25.25 C-9.58831481 21.53563382 -9.58831481 21.53563382 -11.9375 18.3125 C-17.18107041 13.62675623 -21.08866381 13.87377842 -26.875 17.6875 Z " fill="#000000" transform="translate(208.875,392.3125)"/>
<path d="M0 0 C2.4375 1.5625 2.4375 1.5625 4 4 C4.84715191 8.66370227 4.65619755 11.95008392 2.125 16 C-1.38279221 19.30145149 -4.06449597 19.40395979 -8.73828125 19.34375 C-11 19 -11 19 -14 16.875 C-16.26157198 13.62399027 -17 11.95490344 -17 8 C-15.74488452 3.37176167 -14.83102983 1.52738431 -10.75 -1.0625 C-6.28720264 -2.17819934 -4.19403901 -1.82005466 0 0 Z " fill="#000000" transform="translate(428,131)"/>
<path d="M0 0 C2.50670319 4.0107251 2.38447518 7.91619245 1.5625 12.5 C-0.3125 15.625 -0.3125 15.625 -3.4375 17.5 C-8.46372846 18.48876625 -12.14263784 18.2769173 -16.5625 15.625 C-19.19852749 11.23162086 -19.47197266 7.49995121 -18.4375 2.5 C-16.32123654 -0.38046971 -14.7301342 -1.8536829 -11.5625 -3.4375 C-7.23660249 -3.56473228 -3.64731257 -2.24450004 0 0 Z " fill="#000000" transform="translate(330.4375,132.5)"/>
<path d="M0 0 C2.4375 1.5 2.4375 1.5 4 4 C4.67680159 7.47817165 4.72380843 10.52684173 4 14 C1.34004615 17.41019725 -0.07010284 18.59370586 -4.2265625 19.46875 C-8.46891479 19.75251938 -10.4702662 19.37522811 -14 16.875 C-16.26157198 13.62399027 -17 11.95490344 -17 8 C-15.74488452 3.37176167 -14.83102983 1.52738431 -10.75 -1.0625 C-6.28720264 -2.17819934 -4.19403901 -1.82005466 0 0 Z " fill="#000000" transform="translate(378,131)"/>
</svg>
