<?xml version="1.0" encoding="UTF-8"?>
<svg version="1.1" xmlns="http://www.w3.org/2000/svg" width="512" height="512">
<path d="M0 0 C1.20228241 -0.00570007 2.40456482 -0.01140015 3.64328003 -0.01727295 C6.16598651 -0.02665294 8.68870485 -0.03322876 11.21142578 -0.03710938 C15.05132292 -0.04686645 18.89069555 -0.07797785 22.73046875 -0.109375 C25.19530936 -0.11590194 27.66015375 -0.12115362 30.125 -0.125 C31.26067413 -0.1373468 32.39634827 -0.1496936 33.56643677 -0.16241455 C45.66031669 -0.12886016 56.04021011 3.01345442 65.16015625 11.20703125 C72.69454565 19.10895184 77.00739705 28.50082233 77.09082031 39.45117188 C77.10028183 40.47938553 77.10974335 41.50759918 77.11949158 42.56697083 C77.12388748 43.6740892 77.12828339 44.78120758 77.1328125 45.921875 C77.13982681 47.07970993 77.14684113 48.23754486 77.15406799 49.4304657 C77.17163483 53.18805796 77.17792849 56.94549308 77.1796875 60.703125 C77.18069962 62.61757919 77.18069962 62.61757919 77.18173218 64.57070923 C77.16619478 82.99414075 76.78574929 100.97448476 73.9296875 119.203125 C73.75808105 120.36553711 73.58647461 121.52794922 73.40966797 122.72558594 C63.07153216 191.92365315 35.3722817 253.78422222 -11.0703125 306.203125 C-11.86953125 307.11449219 -12.66875 308.02585937 -13.4921875 308.96484375 C-19.32998793 315.481242 -25.45604605 321.71516136 -31.61676025 327.92480469 C-33.02699108 329.34693795 -34.43323845 330.77301788 -35.83935547 332.19921875 C-41.22048518 337.58708329 -46.75046086 342.54100228 -52.7578125 347.22387695 C-56.16974695 350.14412111 -57.85577365 351.95064872 -58.63194275 356.48191833 C-58.71980545 357.78395706 -58.80766815 359.08599579 -58.89819336 360.42749023 C-58.97699486 361.50895073 -58.97699486 361.50895073 -59.05738831 362.61225891 C-59.1696458 364.17562148 -59.27575749 365.73943483 -59.37641716 367.30358696 C-59.53705517 369.79112423 -59.71482288 372.27691591 -59.89710999 374.76295471 C-60.34703604 380.94496972 -60.76950869 387.12879205 -61.18914795 393.31292725 C-61.54377496 398.52957318 -61.91084575 403.74504994 -62.29452705 408.95964241 C-62.46824749 411.3876009 -62.62409618 413.81626593 -62.77928162 416.24546814 C-63.95487697 433.12442025 -67.72248452 444.8290432 -80.60595703 456.15814209 C-84.35134157 459.2661545 -88.32797744 461.91930529 -92.4140625 464.5546875 C-93.2894014 465.12807861 -94.1647403 465.70146973 -95.06660461 466.29223633 C-97.89680851 468.14431709 -100.73342124 469.98630759 -103.5703125 471.828125 C-106.52933079 473.75973502 -109.48677362 475.6937396 -112.44404602 477.62802124 C-114.43250978 478.92850916 -116.42151397 480.22817112 -118.41105652 481.52700806 C-124.65505305 485.60700963 -130.87015263 489.72688046 -137.05859375 493.890625 C-137.8199765 494.40225189 -138.58135925 494.91387878 -139.36581421 495.44100952 C-142.23005058 497.36669711 -145.09379398 499.29298912 -147.95019531 501.23028564 C-149.86841329 502.53093984 -151.79117896 503.82460857 -153.71484375 505.1171875 C-154.78065674 505.8385791 -155.84646973 506.5599707 -156.94458008 507.30322266 C-165.20916921 512.32665721 -172.43617039 513.1265252 -182.0703125 512.203125 C-188.52795935 510.50422498 -194.5552518 506.95295864 -198.32495117 501.33251953 C-202.67071874 493.36801979 -203.81664058 485.04161228 -205.1328125 476.203125 C-205.38286819 474.60451527 -205.63434799 473.00612769 -205.88720703 471.40795898 C-206.39168144 468.20155898 -206.88653291 464.99391542 -207.37255859 461.78466797 C-208.00701713 457.59895078 -208.66934526 453.41837866 -209.33984375 449.23828125 C-209.70916915 446.91419517 -210.07771503 444.58998501 -210.4453125 442.265625 C-210.69680054 440.67911133 -210.69680054 440.67911133 -210.95336914 439.06054688 C-211.10281982 438.08794922 -211.25227051 437.11535156 -211.40625 436.11328125 C-211.53563965 435.27933838 -211.6650293 434.44539551 -211.79833984 433.58618164 C-212.08153707 431.10477401 -212.11753542 428.69843966 -212.0703125 426.203125 C-212.7303125 426.533125 -213.3903125 426.863125 -214.0703125 427.203125 C-227.36957294 428.16092298 -238.36396265 426.60423784 -248.88069153 417.66415405 C-258.27723896 409.35073972 -267.07186104 400.40564146 -275.95703125 391.5546875 C-276.85482615 390.66096813 -277.75262104 389.76724876 -278.67762184 388.84644699 C-282.93598279 384.60671018 -287.19232094 380.36496737 -291.44557351 376.12010729 C-296.31978993 371.25567492 -301.20219514 366.39965788 -306.09164399 361.55053771 C-310.35795018 357.31819529 -314.61306629 353.07477187 -318.86445045 348.82743454 C-320.66109045 347.03564302 -322.46108702 345.24721021 -324.26459312 343.46232986 C-326.79104929 340.96037076 -329.30441787 338.44591236 -331.81518555 335.92822266 C-332.55041946 335.2057988 -333.28565338 334.48337494 -334.04316711 333.73905945 C-344.98254455 322.69015639 -350.36975977 311.99201977 -350.31225586 296.6105957 C-350.21428942 291.49107883 -350.21428942 291.49107883 -349.0703125 289.203125 C-349.72443115 289.15074173 -350.3785498 289.09835846 -351.05249023 289.04438782 C-358.12394714 288.44423375 -365.11594317 287.5510221 -372.1328125 286.49609375 C-373.245354 286.32942703 -374.35789551 286.16276031 -375.50415039 285.99104309 C-377.84062064 285.63908716 -380.17679981 285.28519384 -382.51269531 284.92944336 C-386.05906322 284.39232876 -389.60752887 283.8709168 -393.15625 283.34960938 C-395.44025136 283.00357436 -397.7241107 282.65660029 -400.0078125 282.30859375 C-401.05396729 282.15738571 -402.10012207 282.00617767 -403.17797852 281.85038757 C-414.40369479 280.10033567 -424.20023884 277.56127672 -431.3203125 268.265625 C-434.39775612 262.88009866 -435.3977987 258.13978337 -435.5078125 251.953125 C-435.54777344 250.73109375 -435.58773438 249.5090625 -435.62890625 248.25 C-434.94180459 238.85335716 -427.68331947 230.33048058 -422.5703125 222.828125 C-420.97716712 220.4709702 -419.38886382 218.11056785 -417.80078125 215.75 C-417.36618088 215.10501556 -416.93158051 214.46003113 -416.48381042 213.79550171 C-412.50703136 207.88162759 -408.59187446 201.92804942 -404.68359375 195.96875 C-404.0419931 194.99122772 -403.40039246 194.01370544 -402.73934937 193.00656128 C-400.1461754 189.05514487 -397.5532923 185.10355842 -394.96679688 181.14776611 C-393.13622488 178.34886098 -391.30092863 175.55310322 -389.46484375 172.7578125 C-388.92370438 171.92743469 -388.382565 171.09705688 -387.82502747 170.24151611 C-379.90511837 158.20807121 -371.64891631 146.08942163 -357.0703125 142.203125 C-347.02104339 140.4841919 -336.84711473 139.9790868 -326.6807785 139.44832993 C-322.39308585 139.21914134 -318.10696557 138.96152859 -313.82082748 138.70509148 C-310.12707319 138.48697212 -306.43427444 138.28995757 -302.73730469 138.13476562 C-284.72944257 138.32483981 -284.72944257 138.32483981 -269.30508423 131.10176086 C-267.27471712 128.62199729 -265.65648615 125.98238096 -264.0703125 123.203125 C-262.95638509 121.83735989 -261.80801771 120.49847701 -260.6171875 119.19921875 C-260.07513672 118.57515137 -259.53308594 117.95108398 -258.97460938 117.30810547 C-255.0906873 113.01487776 -250.98569193 108.93256454 -246.89257812 104.84008789 C-245.33170923 103.27703766 -243.77903362 101.70615135 -242.2265625 100.13476562 C-236.54744735 94.42468309 -230.7581198 89.1102476 -224.43652344 84.10791016 C-222.2216521 82.32495244 -220.14004237 80.46354091 -218.0703125 78.515625 C-160.37550613 26.79635215 -76.57081008 0.28756558 0 0 Z M-209.0703125 112.203125 C-209.88459717 112.93281494 -209.88459717 112.93281494 -210.71533203 113.67724609 C-222.89653398 124.60890441 -235.03021619 135.89817585 -245.15234375 148.79296875 C-246.93530588 151.0334731 -248.8049743 153.11109078 -250.7578125 155.203125 C-266.24288652 172.47731116 -278.80914307 192.98729071 -290.0703125 213.203125 C-290.66803467 214.25862549 -290.66803467 214.25862549 -291.27783203 215.33544922 C-291.65407715 216.03299316 -292.03032227 216.73053711 -292.41796875 217.44921875 C-292.75965088 218.07368896 -293.10133301 218.69815918 -293.45336914 219.34155273 C-294.24200757 221.72119974 -293.85900029 222.84458104 -293.0703125 225.203125 C-291.24773533 227.32008252 -289.41905294 229.27188186 -287.440979 231.2335968 C-286.84745376 231.83391871 -286.25392852 232.43424062 -285.64241767 233.0527541 C-283.64666932 235.06753163 -281.64030945 237.07139374 -279.63378906 239.07543945 C-278.20274485 240.5154574 -276.77231926 241.95609034 -275.34246826 243.39729309 C-271.45297357 247.31332637 -267.55375708 251.21953926 -263.6519289 255.12327981 C-260.39887196 258.37918207 -257.14992003 261.63916624 -253.90076423 264.89896077 C-246.23832017 272.58584392 -238.56733944 280.26413759 -230.89160156 287.93774414 C-222.96337973 295.86416192 -215.05205684 303.80717296 -207.14844918 311.75812751 C-200.36927306 318.57646909 -193.57864324 325.3832568 -186.77889609 332.18108338 C-182.71457122 336.24464169 -178.6550868 340.31276871 -174.60700226 344.39251137 C-170.80186797 348.22658817 -166.98273323 352.04613104 -163.15216827 355.85479546 C-161.74608369 357.25773021 -160.34514441 358.66584291 -158.94969177 360.07935333 C-157.04915094 362.00289246 -155.13121468 363.90716864 -153.20758057 365.80757141 C-152.65474844 366.37583422 -152.10191632 366.94409704 -151.53233171 367.52957994 C-149.8259049 369.25841518 -149.8259049 369.25841518 -147.0703125 371.203125 C-142.48146755 371.09241895 -138.61800126 368.65470606 -134.6328125 366.515625 C-133.90126953 366.12407227 -133.16972656 365.73251953 -132.41601562 365.32910156 C-115.9961188 356.36594688 -100.65167041 345.89530978 -86.0703125 334.203125 C-85.04550781 333.39101563 -84.02070313 332.57890625 -82.96484375 331.7421875 C-77.41308511 327.27885545 -72.10308736 322.59110053 -66.87109375 317.7578125 C-64.69796679 315.77562975 -62.50077324 313.84536955 -60.2734375 311.92578125 C-55.83348927 308.05213427 -51.66165156 303.94201884 -47.5078125 299.765625 C-46.79173828 299.05341797 -46.07566406 298.34121094 -45.33789062 297.60742188 C-40.70929021 292.97039817 -36.31412066 288.19376413 -32.0703125 283.203125 C-31.52656982 282.56608643 -30.98282715 281.92904785 -30.42260742 281.27270508 C20.98819543 220.60902829 46.40406073 144.90446053 46.24536133 65.53125 C46.24213754 62.15073156 46.2660025 58.77104001 46.29101562 55.390625 C46.29328339 53.22395942 46.29399456 51.05729152 46.29296875 48.890625 C46.30678337 47.38761841 46.30678337 47.38761841 46.32087708 45.85424805 C46.3269039 39.00018019 46.3269039 39.00018019 42.9296875 33.203125 C39.87905468 31.08131389 37.13832129 30.89841693 33.4765625 30.75390625 C32.39511963 30.70975586 31.31367676 30.66560547 30.19946289 30.62011719 C29.03793701 30.58563477 27.87641113 30.55115234 26.6796875 30.515625 C25.47111084 30.47727539 24.26253418 30.43892578 23.01733398 30.39941406 C-61.87930139 28.15579264 -145.68784171 54.86052446 -209.0703125 112.203125 Z M-329.15722656 170.26513672 C-331.59348123 170.45492993 -334.03072175 170.61992403 -336.46875 170.78515625 C-338.03397364 170.90733312 -339.59908361 171.03097715 -341.1640625 171.15625 C-341.88493042 171.2012262 -342.60579834 171.24620239 -343.34851074 171.2925415 C-348.19041118 171.7190577 -350.72007208 172.69071598 -354.0703125 176.203125 C-356.37923786 179.27277935 -358.46924465 182.46450787 -360.55078125 185.69140625 C-361.16367508 186.62679733 -361.77656891 187.56218842 -362.40803528 188.52592468 C-364.36579117 191.51746173 -366.31203945 194.5162835 -368.2578125 197.515625 C-369.54674904 199.49074166 -370.83645534 201.4653562 -372.12695312 203.43945312 C-374.01922224 206.3348208 -375.91066457 209.23070015 -377.79858398 212.12890625 C-382.16818495 218.83646837 -386.58793481 225.50840259 -391.03930664 232.16186523 C-393.45608075 235.78078038 -395.84257261 239.41733196 -398.1953125 243.078125 C-398.57945312 243.66980469 -398.96359375 244.26148438 -399.359375 244.87109375 C-401.25293047 247.3486452 -401.25293047 247.3486452 -402.0703125 250.203125 C-394.69067911 251.37930282 -387.31065388 252.55298814 -379.93011761 253.72348785 C-376.50310121 254.26706827 -373.07622596 254.8115082 -369.6496582 255.35791016 C-365.71085356 255.98595506 -361.7714615 256.61026572 -357.83203125 257.234375 C-356.60070969 257.43123901 -355.36938812 257.62810303 -354.10075378 257.83093262 C-352.95979752 258.01111938 -351.81884125 258.19130615 -350.64331055 258.37695312 C-349.6373735 258.53683716 -348.63143646 258.69672119 -347.59501648 258.8614502 C-344.99944911 259.27018004 -344.99944911 259.27018004 -342.0703125 259.203125 C-341.85528076 258.57672119 -341.64024902 257.95031738 -341.41870117 257.30493164 C-331.65513141 229.05949563 -320.22027664 201.21425174 -303.421875 176.35351562 C-300.93684939 173.07153262 -300.93684939 173.07153262 -300.0703125 169.203125 C-309.82014684 169.00778104 -319.4428011 169.48964869 -329.15722656 170.26513672 Z M-308.0703125 254.203125 C-311.44091202 263.37533166 -314.06163473 272.65077687 -316.3828125 282.140625 C-316.64916504 283.20595459 -316.91551758 284.27128418 -317.18994141 285.36889648 C-319.28356303 293.72311471 -319.28356303 293.72311471 -319.0703125 302.203125 C-317.78454386 304.08481937 -317.78454386 304.08481937 -316.06782532 305.89381409 C-315.42994898 306.59471224 -314.79207264 307.29561039 -314.13486671 308.01774788 C-310.65093125 311.70557201 -307.09660549 315.31571243 -303.50463867 318.89819336 C-302.67777557 319.72680878 -301.85091248 320.55542419 -300.99899292 321.40914917 C-298.28958388 324.12292815 -295.57657112 326.83307032 -292.86328125 329.54296875 C-290.97220979 331.43471426 -289.08128649 333.32660696 -287.19050598 335.21864319 C-283.24085866 339.17010218 -279.28912414 343.11946457 -275.33618164 347.06762695 C-270.76544812 351.63289712 -266.19835858 356.20178903 -261.63310069 360.77253431 C-257.70443845 364.70572936 -253.77383752 368.63697901 -249.84159833 372.566598 C-247.49651757 374.91011982 -245.15231527 377.25450733 -242.80946922 379.6002636 C-240.20505651 382.20720323 -237.5974818 384.8109374 -234.98901367 387.41381836 C-234.21238876 388.1924675 -233.43576385 388.97111664 -232.63560486 389.77336121 C-231.92776855 390.47837769 -231.21993225 391.18339417 -230.49064636 391.90977478 C-229.87476245 392.52528167 -229.25887854 393.14078856 -228.62433147 393.77494717 C-225.76009469 396.40724416 -223.35215416 396.45630811 -219.53173828 396.40380859 C-214.58262426 396.00030019 -209.81373599 394.71719674 -205.0078125 393.515625 C-203.90832275 393.24669434 -202.80883301 392.97776367 -201.67602539 392.70068359 C-193.31441197 390.6141181 -185.15964674 388.17579092 -177.0703125 385.203125 C-182.65973027 378.39006963 -188.88896366 372.24345377 -195.1184082 366.02563477 C-196.33953683 364.80314944 -197.56045299 363.58045185 -198.78117371 362.3575592 C-202.08010276 359.0540906 -205.38216357 355.75376945 -208.68495202 352.45415998 C-212.14263919 348.99901096 -215.5978787 345.54141562 -219.05351257 342.08421326 C-224.84938926 336.28652059 -230.6473643 330.49093268 -236.4465332 324.6965332 C-243.15932974 317.9891936 -249.86849542 311.2782383 -256.57581645 304.56542355 C-262.33542718 298.80128376 -268.0969731 293.03908374 -273.86015958 287.27851909 C-277.30237123 283.83786938 -280.74389662 280.39654055 -284.18367958 276.9534626 C-287.41126491 273.72300104 -290.64126278 270.49497174 -293.87318611 267.26885033 C-295.06210031 266.08126441 -296.25015322 264.89281556 -297.43730545 263.70346832 C-299.05021853 262.08784678 -300.66614078 260.47529868 -302.28291321 258.86354065 C-303.18861714 257.95821374 -304.09432108 257.05288683 -305.02747059 256.12012577 C-306.72493998 254.08907668 -306.72493998 254.08907668 -308.0703125 254.203125 Z M-99.8203125 380.953125 C-123.08239472 396.22580438 -148.31716644 407.28771591 -174.55688477 416.30859375 C-177.08979286 417.21005808 -179.58076558 418.1886479 -182.0703125 419.203125 C-179.5000193 439.26944914 -176.2717949 459.22997571 -173.0703125 479.203125 C-164.66341224 474.86155337 -156.90539644 469.54039152 -149.0703125 464.265625 C-146.14130327 462.29846784 -143.21128665 460.3328139 -140.28125 458.3671875 C-139.53128754 457.86350143 -138.78132507 457.35981537 -138.00863647 456.84086609 C-132.58638071 453.20414376 -127.13507276 449.61389967 -121.671875 446.0390625 C-119.41009995 444.55314357 -117.14899075 443.06621799 -114.88818359 441.5788269 C-113.43352323 440.624783 -111.97650656 439.6743216 -110.51708984 438.72756958 C-108.47896672 437.40465912 -106.44973015 436.0690468 -104.421875 434.73046875 C-103.82025543 434.34486786 -103.21863586 433.95926697 -102.5987854 433.5619812 C-99.03348062 431.18659892 -96.77362211 429.1560483 -95.0703125 425.203125 C-94.61983092 422.5891534 -94.30977375 420.1461164 -94.12109375 417.515625 C-94.05875046 416.77666992 -93.99640717 416.03771484 -93.93217468 415.27636719 C-93.8028405 413.71354053 -93.67965926 412.15019396 -93.56225586 410.58642578 C-93.38538299 408.23726535 -93.1895934 405.89031632 -92.99023438 403.54296875 C-92.26797232 394.7402471 -91.8858885 386.03986441 -92.0703125 377.203125 C-95.26980862 377.203125 -97.19591306 379.18259715 -99.8203125 380.953125 Z " fill="#000000" transform="translate(435.0703125,-0.203125)"/>
<path d="M0 0 C15.82299985 12.08123946 25.52759096 28.56785085 29.69921875 47.875 C32.18585478 68.11621727 29.25572407 89.09392246 16.79394531 105.79101562 C13.79248644 109.46211406 10.50154211 112.76606628 7.08984375 116.0546875 C6.37183594 116.79203125 5.65382813 117.529375 4.9140625 118.2890625 C-6.78545568 129.65808582 -23.71394626 136.35807632 -39.91015625 137.0546875 C-40.71195312 137.10625 -41.51375 137.1578125 -42.33984375 137.2109375 C-62.25259099 137.91999675 -81.12265667 130.68551793 -96.09765625 117.7421875 C-108.47399669 106.08926664 -116.88918027 91.87839856 -119.91015625 75.0546875 C-120.25046875 73.353125 -120.25046875 73.353125 -120.59765625 71.6171875 C-121.97252616 55.94367048 -119.9589595 41.22996677 -112.91015625 27.0546875 C-112.45253906 26.09304687 -111.99492187 25.13140625 -111.5234375 24.140625 C-102.57070181 7.04698859 -87.01246206 -4.21781653 -69.2734375 -10.9375 C-45.16078153 -18.16289517 -20.77065785 -13.88427867 0 0 Z M-79.28515625 32.4921875 C-86.53434118 41.15620329 -90.68716603 52.2917122 -90.19140625 63.71484375 C-89.07853389 72.97332349 -86.28928718 80.44970928 -80.91015625 88.0546875 C-80.24886719 89.00988281 -80.24886719 89.00988281 -79.57421875 89.984375 C-73.53099688 97.84405662 -64.37915157 102.63912747 -54.91015625 105.0546875 C-54.08515625 105.2815625 -53.26015625 105.5084375 -52.41015625 105.7421875 C-39.90469233 107.30537049 -28.32371722 104.13077438 -17.91015625 97.0546875 C-9.19696076 90.03278819 -2.751569 80.17988956 -0.91015625 69.0546875 C0.1679154 55.20446141 -2.25397876 45.50816482 -9.91015625 34.0546875 C-10.48765625 33.1678125 -11.06515625 32.2809375 -11.66015625 31.3671875 C-20.7856339 21.98822436 -32.0092163 17.00118367 -44.97265625 16.7421875 C-58.97204169 16.72676779 -69.82182801 22.36537869 -79.28515625 32.4921875 Z " fill="#000000" transform="translate(395.91015625,99.9453125)"/>
<path d="M0 0 C4.09078595 3.42484405 5.38689527 5.9187505 6.5625 11.125 C7.00669512 16.281526 5.44053758 20.05054658 2.27330971 24.02431774 C-2.36992648 29.29734589 -7.22898598 34.31456721 -12.19775391 39.28051758 C-13.48934166 40.57714325 -13.48934166 40.57714325 -14.80702209 41.89996338 C-17.14584609 44.24660286 -19.48687642 46.59099168 -21.82928896 48.93404603 C-23.29546795 50.40093983 -24.76093097 51.86854506 -26.2261467 53.33640099 C-31.34518881 58.46466041 -36.46677241 63.59036541 -41.59082031 68.71362305 C-46.3573266 73.47952688 -51.11820658 78.25100073 -55.87652838 83.02507478 C-59.97505215 87.13667967 -64.07742777 91.24441428 -68.18281686 95.34916419 C-70.62933475 97.79542761 -73.07428833 100.24320502 -75.51536942 102.69489479 C-78.23333851 105.42435683 -80.95929646 108.14575249 -83.68603516 110.86645508 C-84.89089821 112.07974739 -84.89089821 112.07974739 -86.12010193 113.31755066 C-86.86571884 114.05897308 -87.61133575 114.80039551 -88.37954712 115.56428528 C-89.02216303 116.20744596 -89.66477894 116.85060663 -90.32686806 117.51325703 C-95.59582556 122.12177722 -99.58480207 122.7865594 -106.4296875 122.6015625 C-110.3335649 122.12547989 -112.46980391 120.9469168 -115.3125 118.25 C-117.9115635 114.58368821 -118.78678036 111.92493905 -118.875 107.4375 C-118.91753906 106.46167969 -118.96007812 105.48585938 -119.00390625 104.48046875 C-117.22469772 96.16744359 -109.07346861 89.72387832 -103.26538086 83.9440918 C-102.37520767 83.05041397 -101.48503448 82.15673615 -100.56788635 81.23597717 C-98.1469984 78.80604388 -95.71991484 76.38239213 -93.2913177 73.96016669 C-90.74153925 71.41548453 -88.19668106 68.86588901 -85.65101624 66.3170929 C-81.38022487 62.04267439 -77.10525945 57.77246466 -72.82788086 53.50463867 C-67.88894541 48.57660629 -62.95728405 43.64138236 -58.02929777 38.70240277 C-53.78653377 34.45055509 -49.53987523 30.20262675 -45.28995234 25.95793468 C-42.75648819 23.42758159 -40.22437829 20.89591302 -37.69578362 18.36069298 C-34.87964688 15.53769168 -32.05536319 12.72292953 -29.23022461 9.90893555 C-27.98092667 8.65356491 -27.98092667 8.65356491 -26.70639038 7.37283325 C-25.93408585 6.60616837 -25.16178131 5.83950348 -24.36607361 5.04960632 C-23.70003585 4.38432261 -23.03399809 3.71903891 -22.34777737 3.03359509 C-15.40660859 -3.04922917 -8.28527487 -4.37712635 0 0 Z " fill="#000000" transform="translate(118.3125,389.75)"/>
<path d="M0 0 C4.40101653 2.28200857 6.95038201 4.46926549 9 9 C10.43462328 13.96600368 9.80253063 18.21947447 8 23 C6.33014365 25.21204469 4.84405703 26.94250693 2.87939453 28.83349609 C2.35883484 29.35814453 1.83827515 29.88279297 1.30194092 30.42333984 C-0.40697719 32.13823044 -2.13628229 33.83076594 -3.8671875 35.5234375 C-5.0666065 36.7167342 -6.26484134 37.91122221 -7.46194458 39.10684204 C-9.96643986 41.60215898 -12.48039529 44.08736651 -15.00244141 46.56494141 C-18.23309708 49.73891176 -21.44603238 52.93009367 -24.65292168 56.12805748 C-27.12435296 58.59117304 -29.60139474 61.04857573 -32.0805397 63.50392532 C-33.26716727 64.67917202 -34.45287198 65.85535127 -35.63763046 67.03248215 C-37.29349442 68.67458164 -38.95591673 70.30972437 -40.62060547 71.94287109 C-41.10802216 72.42805206 -41.59543884 72.91323303 -42.09762573 73.41311646 C-46.17546378 77.38904449 -49.15641944 79.28592554 -54.875 79.375 C-59.68401017 79.26184682 -62.35414962 78.29862653 -66 75 C-70.1771257 70.49310122 -70.46363524 66.66373422 -70.53125 60.78125 C-69.4249452 54.98941899 -65.10128318 50.84659007 -61.06713867 46.77661133 C-60.59012009 46.29287552 -60.1131015 45.80913971 -59.62162781 45.31074524 C-58.05895985 43.72923482 -56.48900517 42.15522598 -54.91796875 40.58203125 C-53.81929799 39.47692511 -52.72077441 38.37167263 -51.62239075 37.26628113 C-49.32528919 34.95724274 -47.02413037 32.65233643 -44.72045898 30.34985352 C-41.77826173 27.40785973 -38.85008052 24.45233134 -35.92524242 21.49309254 C-33.66292183 19.20847526 -31.39150852 16.9330663 -29.11748695 14.66010094 C-28.03426223 13.57452617 -26.95425555 12.48572988 -25.87764549 11.39359474 C-24.36817319 9.86439804 -22.84639292 8.34854484 -21.32104492 6.83520508 C-20.46040939 5.97171951 -19.59977386 5.10823395 -18.71305847 4.21858215 C-12.86681782 -0.562135 -7.30502364 -1.95598994 0 0 Z " fill="#000000" transform="translate(160,433)"/>
<path d="M0 0 C3.25243169 3.43828493 5.07544778 6.73978108 5.28515625 11.5546875 C4.74644566 19.35942148 0.63444167 24.11439 -4.79296875 29.55175781 C-5.51572495 30.27977097 -5.51572495 30.27977097 -6.25308228 31.02249146 C-7.8304313 32.60856812 -9.41489318 34.18730428 -11 35.765625 C-12.1060051 36.87297889 -13.2117133 37.9806294 -14.31713867 39.08856201 C-16.62713598 41.40149805 -18.94068707 43.71080271 -21.25683594 46.01757812 C-24.22270686 48.97202851 -27.17947214 51.93540369 -30.13365173 54.90153885 C-32.41199895 57.18711565 -34.6950913 59.46790447 -36.97964478 61.74727631 C-38.0719374 62.83823687 -39.16275209 63.93067929 -40.25204468 65.02463531 C-41.77391596 66.55159277 -43.30206367 68.07198094 -44.83203125 69.59082031 C-46.13297729 70.88937958 -46.13297729 70.88937958 -47.46020508 72.21417236 C-52.18823951 76.43174101 -55.92788202 76.75694592 -62.12109375 76.625 C-67.29080222 76.02474357 -69.82220445 73.40703719 -73.1875 69.6875 C-75.33657991 65.22402634 -75.82208976 61.18228591 -74.8125 56.3125 C-72.19549328 52.00597781 -69.24148187 48.47332697 -65.71191406 44.88964844 C-65.21699463 44.38479919 -64.7220752 43.87994995 -64.2121582 43.35980225 C-62.58963545 41.70830924 -60.95963757 40.06448473 -59.328125 38.421875 C-58.76808525 37.8561805 -58.2080455 37.29048599 -57.63103485 36.70764923 C-54.67057024 33.71731914 -51.70448898 30.73270129 -48.73339844 27.75292969 C-45.67563379 24.6841776 -42.63688084 21.59729868 -39.60217667 18.50576401 C-37.25472661 16.12098 -34.8938827 13.74980208 -32.52922821 11.38208771 C-31.40316984 10.24999924 -30.28208746 9.11293749 -29.1662674 7.97075653 C-27.60165383 6.37182832 -26.01896076 4.79313176 -24.43066406 3.21777344 C-23.53671936 2.31653748 -22.64277466 1.41530151 -21.72174072 0.48675537 C-14.64563192 -4.80165801 -7.3332589 -4.39995534 0 0 Z " fill="#000000" transform="translate(74.8125,345.6875)"/>
</svg>
